<?xml version="1.0" encoding="UTF-8" standalone="no"?>
<!DOCTYPE svg PUBLIC "-//W3C//DTD SVG 1.1//EN"
 "http://www.w3.org/Graphics/SVG/1.1/DTD/svg11.dtd">
<!-- Generated by graphviz version 2.50.0 (20211204.2007)
 -->
<!-- Pages: 1 -->
<svg width="1330pt" height="756pt"
 viewBox="0.00 0.00 1330.00 756.00" xmlns="http://www.w3.org/2000/svg" xmlns:xlink="http://www.w3.org/1999/xlink">
<g id="graph0" class="graph" transform="scale(1 1) rotate(0) translate(4 752)">
<polygon fill="white" stroke="transparent" points="-4,4 -4,-752 1326,-752 1326,4 -4,4"/>
<!-- 1 -->
<g id="node1" class="node">
<title>1</title>
<text text-anchor="start" x="657" y="-729.8" font-family="Arial" font-weight="bold" font-size="14.00"> </text>
<path fill="#ebebeb" stroke="transparent" d="M604,-615C604,-615 714,-615 714,-615 720,-615 726,-621 726,-627 726,-627 726,-709 726,-709 726,-715 720,-721 714,-721 714,-721 604,-721 604,-721 598,-721 592,-715 592,-709 592,-709 592,-627 592,-627 592,-621 598,-615 604,-615"/>
<text text-anchor="start" x="593" y="-718.4" font-family="Arial" font-size="2.00"> </text>
<text text-anchor="start" x="593" y="-712.4" font-family="Arial" font-size="7.00"> &#160;1</text>
<text text-anchor="start" x="630" y="-695.8" font-family="Arial" font-weight="bold" font-size="14.00">Predict 0</text>
<text text-anchor="start" x="631.5" y="-678.8" font-family="Arial" font-weight="bold" font-size="14.00">n = 2715</text>
<polygon fill="none" stroke="#333333" points="607,-651 607,-672 621,-672 621,-651 607,-651"/>
<text text-anchor="start" x="610" y="-657.8" font-family="Arial" font-size="14.00">0</text>
<polygon fill="none" stroke="#333333" points="621,-651 621,-672 658,-672 658,-651 621,-651"/>
<text text-anchor="start" x="624" y="-657.8" font-family="Arial" font-size="14.00">1373</text>
<polygon fill="none" stroke="#333333" points="658,-651 658,-672 711,-672 711,-651 658,-651"/>
<text text-anchor="start" x="661" y="-657.8" font-family="Arial" font-size="14.00">50.57%</text>
<polygon fill="none" stroke="#333333" points="607,-630 607,-651 621,-651 621,-630 607,-630"/>
<text text-anchor="start" x="610" y="-636.8" font-family="Arial" font-size="14.00">1</text>
<polygon fill="none" stroke="#333333" points="621,-630 621,-651 658,-651 658,-630 621,-630"/>
<text text-anchor="start" x="624" y="-636.8" font-family="Arial" font-size="14.00">1342</text>
<polygon fill="none" stroke="#333333" points="658,-630 658,-651 711,-651 711,-630 658,-630"/>
<text text-anchor="start" x="661" y="-636.8" font-family="Arial" font-size="14.00">49.43%</text>
<text text-anchor="start" x="657.5" y="-618.8" font-family="Arial" font-size="9.00"> </text>
<path fill="none" stroke="#333333" d="M604,-615C604,-615 714,-615 714,-615 720,-615 726,-621 726,-627 726,-627 726,-709 726,-709 726,-715 720,-721 714,-721 714,-721 604,-721 604,-721 598,-721 592,-715 592,-709 592,-709 592,-627 592,-627 592,-621 598,-615 604,-615"/>
<text text-anchor="start" x="632" y="-600.8" font-family="Arial" font-weight="bold" font-size="14.00">GenHlth</text>
</g>
<!-- 2 -->
<g id="node2" class="node">
<title>2</title>
<text text-anchor="start" x="475.5" y="-533.8" font-family="Arial" font-weight="bold" font-size="14.00"> &lt; 2.5</text>
<path fill="#ebebeb" stroke="transparent" d="M442,-419C442,-419 544,-419 544,-419 550,-419 556,-425 556,-431 556,-431 556,-513 556,-513 556,-519 550,-525 544,-525 544,-525 442,-525 442,-525 436,-525 430,-519 430,-513 430,-513 430,-431 430,-431 430,-425 436,-419 442,-419"/>
<text text-anchor="start" x="431" y="-522.4" font-family="Arial" font-size="2.00"> </text>
<text text-anchor="start" x="431" y="-516.4" font-family="Arial" font-size="7.00"> &#160;2</text>
<text text-anchor="start" x="464" y="-499.8" font-family="Arial" font-weight="bold" font-size="14.00">Predict 0</text>
<text text-anchor="start" x="465.5" y="-482.8" font-family="Arial" font-weight="bold" font-size="14.00">n = 1062</text>
<polygon fill="none" stroke="#333333" points="445,-455 445,-476 459,-476 459,-455 445,-455"/>
<text text-anchor="start" x="448" y="-461.8" font-family="Arial" font-size="14.00">0</text>
<polygon fill="none" stroke="#333333" points="459,-455 459,-476 488,-476 488,-455 459,-455"/>
<text text-anchor="start" x="462" y="-461.8" font-family="Arial" font-size="14.00">796</text>
<polygon fill="none" stroke="#333333" points="488,-455 488,-476 541,-476 541,-455 488,-455"/>
<text text-anchor="start" x="491" y="-461.8" font-family="Arial" font-size="14.00">74.95%</text>
<polygon fill="none" stroke="#333333" points="445,-434 445,-455 459,-455 459,-434 445,-434"/>
<text text-anchor="start" x="448" y="-440.8" font-family="Arial" font-size="14.00">1</text>
<polygon fill="none" stroke="#333333" points="459,-434 459,-455 488,-455 488,-434 459,-434"/>
<text text-anchor="start" x="462" y="-440.8" font-family="Arial" font-size="14.00">266</text>
<polygon fill="none" stroke="#333333" points="488,-434 488,-455 541,-455 541,-434 488,-434"/>
<text text-anchor="start" x="491" y="-440.8" font-family="Arial" font-size="14.00">25.05%</text>
<text text-anchor="start" x="491.5" y="-422.8" font-family="Arial" font-size="9.00"> </text>
<path fill="none" stroke="#333333" d="M442,-419C442,-419 544,-419 544,-419 550,-419 556,-425 556,-431 556,-431 556,-513 556,-513 556,-519 550,-525 544,-525 544,-525 442,-525 442,-525 436,-525 430,-519 430,-513 430,-513 430,-431 430,-431 430,-425 436,-419 442,-419"/>
<text text-anchor="start" x="466" y="-404.8" font-family="Arial" font-weight="bold" font-size="14.00">GenHlth</text>
</g>
<!-- 1&#45;&gt;2 -->
<g id="edge1" class="edge">
<title>1&#45;&gt;2</title>
<path fill="none" stroke="#888888" d="M591.24,-587.81C583.4,-578.65 575.37,-569.26 567.44,-559.99"/>
<polygon fill="#888888" stroke="#888888" points="569.97,-557.57 560.81,-552.25 564.65,-562.12 569.97,-557.57"/>
</g>
<!-- 9 -->
<g id="node3" class="node">
<title>9</title>
<text text-anchor="start" x="811" y="-533.8" font-family="Arial" font-weight="bold" font-size="14.00"> ≥ 2.5</text>
<path fill="#ebebeb" stroke="transparent" d="M773,-419C773,-419 883,-419 883,-419 889,-419 895,-425 895,-431 895,-431 895,-513 895,-513 895,-519 889,-525 883,-525 883,-525 773,-525 773,-525 767,-525 761,-519 761,-513 761,-513 761,-431 761,-431 761,-425 767,-419 773,-419"/>
<text text-anchor="start" x="762" y="-522.4" font-family="Arial" font-size="2.00"> </text>
<text text-anchor="start" x="762" y="-516.4" font-family="Arial" font-size="7.00"> &#160;9</text>
<text text-anchor="start" x="799" y="-499.8" font-family="Arial" font-weight="bold" font-size="14.00">Predict 1</text>
<text text-anchor="start" x="800.5" y="-482.8" font-family="Arial" font-weight="bold" font-size="14.00">n = 1653</text>
<polygon fill="none" stroke="#333333" points="776,-455 776,-476 790,-476 790,-455 776,-455"/>
<text text-anchor="start" x="779" y="-461.8" font-family="Arial" font-size="14.00">0</text>
<polygon fill="none" stroke="#333333" points="790,-455 790,-476 827,-476 827,-455 790,-455"/>
<text text-anchor="start" x="801" y="-461.8" font-family="Arial" font-size="14.00">577</text>
<polygon fill="none" stroke="#333333" points="827,-455 827,-476 880,-476 880,-455 827,-455"/>
<text text-anchor="start" x="830" y="-461.8" font-family="Arial" font-size="14.00">34.91%</text>
<polygon fill="none" stroke="#333333" points="776,-434 776,-455 790,-455 790,-434 776,-434"/>
<text text-anchor="start" x="779" y="-440.8" font-family="Arial" font-size="14.00">1</text>
<polygon fill="none" stroke="#333333" points="790,-434 790,-455 827,-455 827,-434 790,-434"/>
<text text-anchor="start" x="793" y="-440.8" font-family="Arial" font-size="14.00">1076</text>
<polygon fill="none" stroke="#333333" points="827,-434 827,-455 880,-455 880,-434 827,-434"/>
<text text-anchor="start" x="830" y="-440.8" font-family="Arial" font-size="14.00">65.09%</text>
<text text-anchor="start" x="826.5" y="-422.8" font-family="Arial" font-size="9.00"> </text>
<path fill="none" stroke="#333333" d="M773,-419C773,-419 883,-419 883,-419 889,-419 895,-425 895,-431 895,-431 895,-513 895,-513 895,-519 889,-525 883,-525 883,-525 773,-525 773,-525 767,-525 761,-519 761,-513 761,-513 761,-431 761,-431 761,-425 767,-419 773,-419"/>
<text text-anchor="start" x="803.5" y="-404.8" font-family="Arial" font-weight="bold" font-size="14.00">HighBP</text>
</g>
<!-- 1&#45;&gt;9 -->
<g id="edge2" class="edge">
<title>1&#45;&gt;9</title>
<path fill="none" stroke="#888888" d="M727.98,-587.81C735.97,-578.65 744.15,-569.26 752.22,-559.99"/>
<polygon fill="#888888" stroke="#888888" points="755.03,-562.09 758.96,-552.25 749.76,-557.49 755.03,-562.09"/>
</g>
<!-- 3 -->
<g id="node4" class="node">
<title>3</title>
<text text-anchor="start" x="226.5" y="-337.8" font-family="Arial" font-weight="bold" font-size="14.00"> &lt; 1.5</text>
<path fill="#ebebeb" stroke="transparent" d="M193,-223C193,-223 295,-223 295,-223 301,-223 307,-229 307,-235 307,-235 307,-317 307,-317 307,-323 301,-329 295,-329 295,-329 193,-329 193,-329 187,-329 181,-323 181,-317 181,-317 181,-235 181,-235 181,-229 187,-223 193,-223"/>
<text text-anchor="start" x="182" y="-326.4" font-family="Arial" font-size="2.00"> </text>
<text text-anchor="start" x="182" y="-320.4" font-family="Arial" font-size="7.00"> &#160;3</text>
<text text-anchor="start" x="215" y="-303.8" font-family="Arial" font-weight="bold" font-size="14.00">Predict 0</text>
<text text-anchor="start" x="220.5" y="-286.8" font-family="Arial" font-weight="bold" font-size="14.00">n = 316</text>
<polygon fill="none" stroke="#333333" points="196,-259 196,-280 210,-280 210,-259 196,-259"/>
<text text-anchor="start" x="199" y="-265.8" font-family="Arial" font-size="14.00">0</text>
<polygon fill="none" stroke="#333333" points="210,-259 210,-280 239,-280 239,-259 210,-259"/>
<text text-anchor="start" x="213" y="-265.8" font-family="Arial" font-size="14.00">284</text>
<polygon fill="none" stroke="#333333" points="239,-259 239,-280 292,-280 292,-259 239,-259"/>
<text text-anchor="start" x="242" y="-265.8" font-family="Arial" font-size="14.00">89.87%</text>
<polygon fill="none" stroke="#333333" points="196,-238 196,-259 210,-259 210,-238 196,-238"/>
<text text-anchor="start" x="199" y="-244.8" font-family="Arial" font-size="14.00">1</text>
<polygon fill="none" stroke="#333333" points="210,-238 210,-259 239,-259 239,-238 210,-238"/>
<text text-anchor="start" x="220" y="-244.8" font-family="Arial" font-size="14.00">32</text>
<polygon fill="none" stroke="#333333" points="239,-238 239,-259 292,-259 292,-238 239,-238"/>
<text text-anchor="start" x="242" y="-244.8" font-family="Arial" font-size="14.00">10.13%</text>
<text text-anchor="start" x="242.5" y="-226.8" font-family="Arial" font-size="9.00"> </text>
<path fill="none" stroke="#333333" d="M193,-223C193,-223 295,-223 295,-223 301,-223 307,-229 307,-235 307,-235 307,-317 307,-317 307,-323 301,-329 295,-329 295,-329 193,-329 193,-329 187,-329 181,-323 181,-317 181,-317 181,-235 181,-235 181,-229 187,-223 193,-223"/>
<text text-anchor="start" x="216.5" y="-208.8" font-family="Arial" font-weight="bold" font-size="14.00">DiffWalk</text>
</g>
<!-- 2&#45;&gt;3 -->
<g id="edge3" class="edge">
<title>2&#45;&gt;3</title>
<path fill="none" stroke="#888888" d="M417.95,-412.53C389.42,-390.3 356.75,-364.84 327.48,-342.04"/>
<polygon fill="#888888" stroke="#888888" points="329.36,-339.07 319.32,-335.68 325.06,-344.59 329.36,-339.07"/>
</g>
<!-- 6 -->
<g id="node5" class="node">
<title>6</title>
<text text-anchor="start" x="476" y="-337.8" font-family="Arial" font-weight="bold" font-size="14.00"> ≥ 1.5</text>
<path fill="#ebebeb" stroke="transparent" d="M442,-223C442,-223 544,-223 544,-223 550,-223 556,-229 556,-235 556,-235 556,-317 556,-317 556,-323 550,-329 544,-329 544,-329 442,-329 442,-329 436,-329 430,-323 430,-317 430,-317 430,-235 430,-235 430,-229 436,-223 442,-223"/>
<text text-anchor="start" x="431" y="-326.4" font-family="Arial" font-size="2.00"> </text>
<text text-anchor="start" x="431" y="-320.4" font-family="Arial" font-size="7.00"> &#160;6</text>
<text text-anchor="start" x="464" y="-303.8" font-family="Arial" font-weight="bold" font-size="14.00">Predict 0</text>
<text text-anchor="start" x="469.5" y="-286.8" font-family="Arial" font-weight="bold" font-size="14.00">n = 746</text>
<polygon fill="none" stroke="#333333" points="445,-259 445,-280 459,-280 459,-259 445,-259"/>
<text text-anchor="start" x="448" y="-265.8" font-family="Arial" font-size="14.00">0</text>
<polygon fill="none" stroke="#333333" points="459,-259 459,-280 488,-280 488,-259 459,-259"/>
<text text-anchor="start" x="462" y="-265.8" font-family="Arial" font-size="14.00">512</text>
<polygon fill="none" stroke="#333333" points="488,-259 488,-280 541,-280 541,-259 488,-259"/>
<text text-anchor="start" x="491" y="-265.8" font-family="Arial" font-size="14.00">68.63%</text>
<polygon fill="none" stroke="#333333" points="445,-238 445,-259 459,-259 459,-238 445,-238"/>
<text text-anchor="start" x="448" y="-244.8" font-family="Arial" font-size="14.00">1</text>
<polygon fill="none" stroke="#333333" points="459,-238 459,-259 488,-259 488,-238 459,-238"/>
<text text-anchor="start" x="462" y="-244.8" font-family="Arial" font-size="14.00">234</text>
<polygon fill="none" stroke="#333333" points="488,-238 488,-259 541,-259 541,-238 488,-238"/>
<text text-anchor="start" x="491" y="-244.8" font-family="Arial" font-size="14.00">31.37%</text>
<text text-anchor="start" x="491.5" y="-226.8" font-family="Arial" font-size="9.00"> </text>
<path fill="none" stroke="#333333" d="M442,-223C442,-223 544,-223 544,-223 550,-223 556,-229 556,-235 556,-235 556,-317 556,-317 556,-323 550,-329 544,-329 544,-329 442,-329 442,-329 436,-329 430,-323 430,-317 430,-317 430,-235 430,-235 430,-229 436,-223 442,-223"/>
<text text-anchor="start" x="480" y="-208.8" font-family="Arial" font-weight="bold" font-size="14.00">Age</text>
</g>
<!-- 2&#45;&gt;6 -->
<g id="edge4" class="edge">
<title>2&#45;&gt;6</title>
<path fill="none" stroke="#888888" d="M493,-391.81C493,-383.47 493,-374.95 493,-366.5"/>
<polygon fill="#888888" stroke="#888888" points="496.5,-366.25 493,-356.25 489.5,-366.25 496.5,-366.25"/>
</g>
<!-- 10 -->
<g id="node10" class="node">
<title>10</title>
<text text-anchor="start" x="810.5" y="-337.8" font-family="Arial" font-weight="bold" font-size="14.00"> &lt; 0.5</text>
<path fill="#ebebeb" stroke="transparent" d="M777,-223C777,-223 879,-223 879,-223 885,-223 891,-229 891,-235 891,-235 891,-317 891,-317 891,-323 885,-329 879,-329 879,-329 777,-329 777,-329 771,-329 765,-323 765,-317 765,-317 765,-235 765,-235 765,-229 771,-223 777,-223"/>
<text text-anchor="start" x="766" y="-326.4" font-family="Arial" font-size="2.00"> </text>
<text text-anchor="start" x="766" y="-320.4" font-family="Arial" font-size="7.00"> &#160;10</text>
<text text-anchor="start" x="799" y="-303.8" font-family="Arial" font-weight="bold" font-size="14.00">Predict 0</text>
<text text-anchor="start" x="804.5" y="-286.8" font-family="Arial" font-weight="bold" font-size="14.00">n = 503</text>
<polygon fill="none" stroke="#333333" points="780,-259 780,-280 794,-280 794,-259 780,-259"/>
<text text-anchor="start" x="783" y="-265.8" font-family="Arial" font-size="14.00">0</text>
<polygon fill="none" stroke="#333333" points="794,-259 794,-280 823,-280 823,-259 794,-259"/>
<text text-anchor="start" x="797" y="-265.8" font-family="Arial" font-size="14.00">278</text>
<polygon fill="none" stroke="#333333" points="823,-259 823,-280 876,-280 876,-259 823,-259"/>
<text text-anchor="start" x="826" y="-265.8" font-family="Arial" font-size="14.00">55.27%</text>
<polygon fill="none" stroke="#333333" points="780,-238 780,-259 794,-259 794,-238 780,-238"/>
<text text-anchor="start" x="783" y="-244.8" font-family="Arial" font-size="14.00">1</text>
<polygon fill="none" stroke="#333333" points="794,-238 794,-259 823,-259 823,-238 794,-238"/>
<text text-anchor="start" x="797" y="-244.8" font-family="Arial" font-size="14.00">225</text>
<polygon fill="none" stroke="#333333" points="823,-238 823,-259 876,-259 876,-238 823,-238"/>
<text text-anchor="start" x="826" y="-244.8" font-family="Arial" font-size="14.00">44.73%</text>
<text text-anchor="start" x="826.5" y="-226.8" font-family="Arial" font-size="9.00"> </text>
<path fill="none" stroke="#333333" d="M777,-223C777,-223 879,-223 879,-223 885,-223 891,-229 891,-235 891,-235 891,-317 891,-317 891,-323 885,-329 879,-329 879,-329 777,-329 777,-329 771,-329 765,-323 765,-317 765,-317 765,-235 765,-235 765,-229 771,-223 777,-223"/>
<text text-anchor="start" x="815" y="-208.8" font-family="Arial" font-weight="bold" font-size="14.00">Age</text>
</g>
<!-- 9&#45;&gt;10 -->
<g id="edge9" class="edge">
<title>9&#45;&gt;10</title>
<path fill="none" stroke="#888888" d="M828,-391.81C828,-383.47 828,-374.95 828,-366.5"/>
<polygon fill="#888888" stroke="#888888" points="831.5,-366.25 828,-356.25 824.5,-366.25 831.5,-366.25"/>
</g>
<!-- 13 -->
<g id="node11" class="node">
<title>13</title>
<text text-anchor="start" x="1062" y="-337.8" font-family="Arial" font-weight="bold" font-size="14.00"> ≥ 0.5</text>
<path fill="#ebebeb" stroke="transparent" d="M1028,-223C1028,-223 1130,-223 1130,-223 1136,-223 1142,-229 1142,-235 1142,-235 1142,-317 1142,-317 1142,-323 1136,-329 1130,-329 1130,-329 1028,-329 1028,-329 1022,-329 1016,-323 1016,-317 1016,-317 1016,-235 1016,-235 1016,-229 1022,-223 1028,-223"/>
<text text-anchor="start" x="1017" y="-326.4" font-family="Arial" font-size="2.00"> </text>
<text text-anchor="start" x="1017" y="-320.4" font-family="Arial" font-size="7.00"> &#160;13</text>
<text text-anchor="start" x="1050" y="-303.8" font-family="Arial" font-weight="bold" font-size="14.00">Predict 1</text>
<text text-anchor="start" x="1052" y="-286.8" font-family="Arial" font-weight="bold" font-size="14.00">n = 1150</text>
<polygon fill="none" stroke="#333333" points="1031,-259 1031,-280 1045,-280 1045,-259 1031,-259"/>
<text text-anchor="start" x="1034" y="-265.8" font-family="Arial" font-size="14.00">0</text>
<polygon fill="none" stroke="#333333" points="1045,-259 1045,-280 1074,-280 1074,-259 1045,-259"/>
<text text-anchor="start" x="1048" y="-265.8" font-family="Arial" font-size="14.00">299</text>
<polygon fill="none" stroke="#333333" points="1074,-259 1074,-280 1127,-280 1127,-259 1074,-259"/>
<text text-anchor="start" x="1077" y="-265.8" font-family="Arial" font-size="14.00">26.00%</text>
<polygon fill="none" stroke="#333333" points="1031,-238 1031,-259 1045,-259 1045,-238 1031,-238"/>
<text text-anchor="start" x="1034" y="-244.8" font-family="Arial" font-size="14.00">1</text>
<polygon fill="none" stroke="#333333" points="1045,-238 1045,-259 1074,-259 1074,-238 1045,-238"/>
<text text-anchor="start" x="1048" y="-244.8" font-family="Arial" font-size="14.00">851</text>
<polygon fill="none" stroke="#333333" points="1074,-238 1074,-259 1127,-259 1127,-238 1074,-238"/>
<text text-anchor="start" x="1077" y="-244.8" font-family="Arial" font-size="14.00">74.00%</text>
<text text-anchor="start" x="1077.5" y="-226.8" font-family="Arial" font-size="9.00"> </text>
<path fill="none" stroke="#333333" d="M1028,-223C1028,-223 1130,-223 1130,-223 1136,-223 1142,-229 1142,-235 1142,-235 1142,-317 1142,-317 1142,-323 1136,-329 1130,-329 1130,-329 1028,-329 1028,-329 1022,-329 1016,-323 1016,-317 1016,-317 1016,-235 1016,-235 1016,-229 1022,-223 1028,-223"/>
<text text-anchor="start" x="1066" y="-208.8" font-family="Arial" font-weight="bold" font-size="14.00">BMI</text>
</g>
<!-- 9&#45;&gt;13 -->
<g id="edge10" class="edge">
<title>9&#45;&gt;13</title>
<path fill="none" stroke="#888888" d="M907.07,-409.88C935.31,-388.06 967.2,-363.41 995.78,-341.32"/>
<polygon fill="#888888" stroke="#888888" points="997.98,-344.05 1003.75,-335.16 993.7,-338.51 997.98,-344.05"/>
</g>
<!-- 4 -->
<g id="node6" class="node">
<title>4</title>
<text text-anchor="start" x="57.5" y="-141.8" font-family="Arial" font-weight="bold" font-size="14.00"> &lt; 0.5</text>
<path fill="#f8766d" fill-opacity="0.929412" stroke="transparent" d="M24,-27C24,-27 126,-27 126,-27 132,-27 138,-33 138,-39 138,-39 138,-121 138,-121 138,-127 132,-133 126,-133 126,-133 24,-133 24,-133 18,-133 12,-127 12,-121 12,-121 12,-39 12,-39 12,-33 18,-27 24,-27"/>
<text text-anchor="start" x="13" y="-130.4" font-family="Arial" font-size="2.00"> </text>
<text text-anchor="start" x="13" y="-124.4" font-family="Arial" font-size="7.00"> &#160;4</text>
<text text-anchor="start" x="46" y="-107.8" font-family="Arial" font-weight="bold" font-size="14.00">Predict 0</text>
<text text-anchor="start" x="51.5" y="-90.8" font-family="Arial" font-weight="bold" font-size="14.00">n = 306</text>
<polygon fill="none" stroke="#333333" points="27,-63 27,-84 41,-84 41,-63 27,-63"/>
<text text-anchor="start" x="30" y="-69.8" font-family="Arial" font-size="14.00">0</text>
<polygon fill="none" stroke="#333333" points="41,-63 41,-84 70,-84 70,-63 41,-63"/>
<text text-anchor="start" x="44" y="-69.8" font-family="Arial" font-size="14.00">284</text>
<polygon fill="none" stroke="#333333" points="70,-63 70,-84 123,-84 123,-63 70,-63"/>
<text text-anchor="start" x="73" y="-69.8" font-family="Arial" font-size="14.00">92.81%</text>
<polygon fill="none" stroke="#333333" points="27,-42 27,-63 41,-63 41,-42 27,-42"/>
<text text-anchor="start" x="30" y="-48.8" font-family="Arial" font-size="14.00">1</text>
<polygon fill="none" stroke="#333333" points="41,-42 41,-63 70,-63 70,-42 41,-42"/>
<text text-anchor="start" x="51" y="-48.8" font-family="Arial" font-size="14.00">22</text>
<polygon fill="none" stroke="#333333" points="70,-42 70,-63 123,-63 123,-42 70,-42"/>
<text text-anchor="start" x="80" y="-48.8" font-family="Arial" font-size="14.00">7.19%</text>
<text text-anchor="start" x="73.5" y="-30.8" font-family="Arial" font-size="9.00"> </text>
<path fill="none" stroke="#333333" d="M24,-27C24,-27 126,-27 126,-27 132,-27 138,-33 138,-39 138,-39 138,-121 138,-121 138,-127 132,-133 126,-133 126,-133 24,-133 24,-133 18,-133 12,-127 12,-121 12,-121 12,-39 12,-39 12,-33 18,-27 24,-27"/>
<text text-anchor="start" x="73" y="-12.8" font-family="Arial" font-weight="bold" font-size="14.00"> </text>
</g>
<!-- 3&#45;&gt;4 -->
<g id="edge5" class="edge">
<title>3&#45;&gt;4</title>
<path fill="none" stroke="#888888" d="M175.02,-195.81C167.03,-186.65 158.85,-177.26 150.78,-167.99"/>
<polygon fill="#888888" stroke="#888888" points="153.24,-165.49 144.04,-160.25 147.97,-170.09 153.24,-165.49"/>
</g>
<!-- 5 -->
<g id="node7" class="node">
<title>5</title>
<text text-anchor="start" x="227.5" y="-141.8" font-family="Arial" font-weight="bold" font-size="14.00"> ≥ 0.5</text>
<path fill="#00bfc4" stroke="transparent" d="M193,-27C193,-27 296,-27 296,-27 302,-27 308,-33 308,-39 308,-39 308,-121 308,-121 308,-127 302,-133 296,-133 296,-133 193,-133 193,-133 187,-133 181,-127 181,-121 181,-121 181,-39 181,-39 181,-33 187,-27 193,-27"/>
<text text-anchor="start" x="182" y="-130.4" font-family="Arial" font-size="2.00"> </text>
<text text-anchor="start" x="182" y="-124.4" font-family="Arial" font-size="7.00"> &#160;5</text>
<text text-anchor="start" x="215.5" y="-107.8" font-family="Arial" font-weight="bold" font-size="14.00">Predict 1</text>
<text text-anchor="start" x="224.5" y="-90.8" font-family="Arial" font-weight="bold" font-size="14.00">n = 10</text>
<polygon fill="none" stroke="#333333" points="196,-63 196,-84 210,-84 210,-63 196,-63"/>
<text text-anchor="start" x="199" y="-69.8" font-family="Arial" font-size="14.00">0</text>
<polygon fill="none" stroke="#333333" points="210,-63 210,-84 232,-84 232,-63 210,-63"/>
<text text-anchor="start" x="221" y="-69.8" font-family="Arial" font-size="14.00">0</text>
<polygon fill="none" stroke="#333333" points="232,-63 232,-84 293,-84 293,-63 232,-63"/>
<text text-anchor="start" x="250" y="-69.8" font-family="Arial" font-size="14.00">0.00%</text>
<polygon fill="none" stroke="#333333" points="196,-42 196,-63 210,-63 210,-42 196,-42"/>
<text text-anchor="start" x="199" y="-48.8" font-family="Arial" font-size="14.00">1</text>
<polygon fill="none" stroke="#333333" points="210,-42 210,-63 232,-63 232,-42 210,-42"/>
<text text-anchor="start" x="213" y="-48.8" font-family="Arial" font-size="14.00">10</text>
<polygon fill="none" stroke="#333333" points="232,-42 232,-63 293,-63 293,-42 232,-42"/>
<text text-anchor="start" x="235" y="-48.8" font-family="Arial" font-size="14.00">100.00%</text>
<text text-anchor="start" x="243" y="-30.8" font-family="Arial" font-size="9.00"> </text>
<path fill="none" stroke="#333333" d="M193,-27C193,-27 296,-27 296,-27 302,-27 308,-33 308,-39 308,-39 308,-121 308,-121 308,-127 302,-133 296,-133 296,-133 193,-133 193,-133 187,-133 181,-127 181,-121 181,-121 181,-39 181,-39 181,-33 187,-27 193,-27"/>
<text text-anchor="start" x="242.5" y="-12.8" font-family="Arial" font-weight="bold" font-size="14.00"> </text>
</g>
<!-- 3&#45;&gt;5 -->
<g id="edge6" class="edge">
<title>3&#45;&gt;5</title>
<path fill="none" stroke="#888888" d="M244,-195.81C244,-187.47 244,-178.95 244,-170.5"/>
<polygon fill="#888888" stroke="#888888" points="247.5,-170.25 244,-160.25 240.5,-170.25 247.5,-170.25"/>
</g>
<!-- 7 -->
<g id="node8" class="node">
<title>7</title>
<text text-anchor="start" x="395.5" y="-141.8" font-family="Arial" font-weight="bold" font-size="14.00"> &lt; 7.5</text>
<path fill="#f8766d" fill-opacity="0.898039" stroke="transparent" d="M362,-27C362,-27 464,-27 464,-27 470,-27 476,-33 476,-39 476,-39 476,-121 476,-121 476,-127 470,-133 464,-133 464,-133 362,-133 362,-133 356,-133 350,-127 350,-121 350,-121 350,-39 350,-39 350,-33 356,-27 362,-27"/>
<text text-anchor="start" x="351" y="-130.4" font-family="Arial" font-size="2.00"> </text>
<text text-anchor="start" x="351" y="-124.4" font-family="Arial" font-size="7.00"> &#160;7</text>
<text text-anchor="start" x="384" y="-107.8" font-family="Arial" font-weight="bold" font-size="14.00">Predict 0</text>
<text text-anchor="start" x="389.5" y="-90.8" font-family="Arial" font-weight="bold" font-size="14.00">n = 271</text>
<polygon fill="none" stroke="#333333" points="365,-63 365,-84 379,-84 379,-63 365,-63"/>
<text text-anchor="start" x="368" y="-69.8" font-family="Arial" font-size="14.00">0</text>
<polygon fill="none" stroke="#333333" points="379,-63 379,-84 408,-84 408,-63 379,-63"/>
<text text-anchor="start" x="382" y="-69.8" font-family="Arial" font-size="14.00">243</text>
<polygon fill="none" stroke="#333333" points="408,-63 408,-84 461,-84 461,-63 408,-63"/>
<text text-anchor="start" x="411" y="-69.8" font-family="Arial" font-size="14.00">89.67%</text>
<polygon fill="none" stroke="#333333" points="365,-42 365,-63 379,-63 379,-42 365,-42"/>
<text text-anchor="start" x="368" y="-48.8" font-family="Arial" font-size="14.00">1</text>
<polygon fill="none" stroke="#333333" points="379,-42 379,-63 408,-63 408,-42 379,-42"/>
<text text-anchor="start" x="389" y="-48.8" font-family="Arial" font-size="14.00">28</text>
<polygon fill="none" stroke="#333333" points="408,-42 408,-63 461,-63 461,-42 408,-42"/>
<text text-anchor="start" x="411" y="-48.8" font-family="Arial" font-size="14.00">10.33%</text>
<text text-anchor="start" x="411.5" y="-30.8" font-family="Arial" font-size="9.00"> </text>
<path fill="none" stroke="#333333" d="M362,-27C362,-27 464,-27 464,-27 470,-27 476,-33 476,-39 476,-39 476,-121 476,-121 476,-127 470,-133 464,-133 464,-133 362,-133 362,-133 356,-133 350,-127 350,-121 350,-121 350,-39 350,-39 350,-33 356,-27 362,-27"/>
<text text-anchor="start" x="411" y="-12.8" font-family="Arial" font-weight="bold" font-size="14.00"> </text>
</g>
<!-- 6&#45;&gt;7 -->
<g id="edge7" class="edge">
<title>6&#45;&gt;7</title>
<path fill="none" stroke="#888888" d="M460.35,-195.81C456.79,-187.2 453.16,-178.38 449.56,-169.66"/>
<polygon fill="#888888" stroke="#888888" points="452.73,-168.16 445.68,-160.25 446.26,-170.83 452.73,-168.16"/>
</g>
<!-- 8 -->
<g id="node9" class="node">
<title>8</title>
<text text-anchor="start" x="564" y="-141.8" font-family="Arial" font-weight="bold" font-size="14.00"> ≥ 7.5</text>
<path fill="#f8766d" fill-opacity="0.564706" stroke="transparent" d="M530,-27C530,-27 632,-27 632,-27 638,-27 644,-33 644,-39 644,-39 644,-121 644,-121 644,-127 638,-133 632,-133 632,-133 530,-133 530,-133 524,-133 518,-127 518,-121 518,-121 518,-39 518,-39 518,-33 524,-27 530,-27"/>
<text text-anchor="start" x="519" y="-130.4" font-family="Arial" font-size="2.00"> </text>
<text text-anchor="start" x="519" y="-124.4" font-family="Arial" font-size="7.00"> &#160;8</text>
<text text-anchor="start" x="552" y="-107.8" font-family="Arial" font-weight="bold" font-size="14.00">Predict 0</text>
<text text-anchor="start" x="557.5" y="-90.8" font-family="Arial" font-weight="bold" font-size="14.00">n = 475</text>
<polygon fill="none" stroke="#333333" points="533,-63 533,-84 547,-84 547,-63 533,-63"/>
<text text-anchor="start" x="536" y="-69.8" font-family="Arial" font-size="14.00">0</text>
<polygon fill="none" stroke="#333333" points="547,-63 547,-84 576,-84 576,-63 547,-63"/>
<text text-anchor="start" x="550" y="-69.8" font-family="Arial" font-size="14.00">269</text>
<polygon fill="none" stroke="#333333" points="576,-63 576,-84 629,-84 629,-63 576,-63"/>
<text text-anchor="start" x="579" y="-69.8" font-family="Arial" font-size="14.00">56.63%</text>
<polygon fill="none" stroke="#333333" points="533,-42 533,-63 547,-63 547,-42 533,-42"/>
<text text-anchor="start" x="536" y="-48.8" font-family="Arial" font-size="14.00">1</text>
<polygon fill="none" stroke="#333333" points="547,-42 547,-63 576,-63 576,-42 547,-42"/>
<text text-anchor="start" x="550" y="-48.8" font-family="Arial" font-size="14.00">206</text>
<polygon fill="none" stroke="#333333" points="576,-42 576,-63 629,-63 629,-42 576,-42"/>
<text text-anchor="start" x="579" y="-48.8" font-family="Arial" font-size="14.00">43.37%</text>
<text text-anchor="start" x="579.5" y="-30.8" font-family="Arial" font-size="9.00"> </text>
<path fill="none" stroke="#333333" d="M530,-27C530,-27 632,-27 632,-27 638,-27 644,-33 644,-39 644,-39 644,-121 644,-121 644,-127 638,-133 632,-133 632,-133 530,-133 530,-133 524,-133 518,-127 518,-121 518,-121 518,-39 518,-39 518,-33 524,-27 530,-27"/>
<text text-anchor="start" x="579" y="-12.8" font-family="Arial" font-weight="bold" font-size="14.00"> </text>
</g>
<!-- 6&#45;&gt;8 -->
<g id="edge8" class="edge">
<title>6&#45;&gt;8</title>
<path fill="none" stroke="#888888" d="M528.92,-195.81C532.87,-187.1 536.91,-178.2 540.91,-169.38"/>
<polygon fill="#888888" stroke="#888888" points="544.11,-170.8 545.05,-160.25 537.73,-167.91 544.11,-170.8"/>
</g>
<!-- 11 -->
<g id="node12" class="node">
<title>11</title>
<text text-anchor="start" x="729" y="-141.8" font-family="Arial" font-weight="bold" font-size="14.00"> &lt; 3.5</text>
<path fill="#f8766d" fill-opacity="0.933333" stroke="transparent" d="M699,-27C699,-27 794,-27 794,-27 800,-27 806,-33 806,-39 806,-39 806,-121 806,-121 806,-127 800,-133 794,-133 794,-133 699,-133 699,-133 693,-133 687,-127 687,-121 687,-121 687,-39 687,-39 687,-33 693,-27 699,-27"/>
<text text-anchor="start" x="688" y="-130.4" font-family="Arial" font-size="2.00"> </text>
<text text-anchor="start" x="688" y="-124.4" font-family="Arial" font-size="7.00"> &#160;11</text>
<text text-anchor="start" x="717.5" y="-107.8" font-family="Arial" font-weight="bold" font-size="14.00">Predict 0</text>
<text text-anchor="start" x="726.5" y="-90.8" font-family="Arial" font-weight="bold" font-size="14.00">n = 45</text>
<polygon fill="none" stroke="#333333" points="702,-63 702,-84 716,-84 716,-63 702,-63"/>
<text text-anchor="start" x="705" y="-69.8" font-family="Arial" font-size="14.00">0</text>
<polygon fill="none" stroke="#333333" points="716,-63 716,-84 738,-84 738,-63 716,-63"/>
<text text-anchor="start" x="719" y="-69.8" font-family="Arial" font-size="14.00">42</text>
<polygon fill="none" stroke="#333333" points="738,-63 738,-84 791,-84 791,-63 738,-63"/>
<text text-anchor="start" x="741" y="-69.8" font-family="Arial" font-size="14.00">93.33%</text>
<polygon fill="none" stroke="#333333" points="702,-42 702,-63 716,-63 716,-42 702,-42"/>
<text text-anchor="start" x="705" y="-48.8" font-family="Arial" font-size="14.00">1</text>
<polygon fill="none" stroke="#333333" points="716,-42 716,-63 738,-63 738,-42 716,-42"/>
<text text-anchor="start" x="727" y="-48.8" font-family="Arial" font-size="14.00">3</text>
<polygon fill="none" stroke="#333333" points="738,-42 738,-63 791,-63 791,-42 738,-42"/>
<text text-anchor="start" x="748" y="-48.8" font-family="Arial" font-size="14.00">6.67%</text>
<text text-anchor="start" x="745" y="-30.8" font-family="Arial" font-size="9.00"> </text>
<path fill="none" stroke="#333333" d="M699,-27C699,-27 794,-27 794,-27 800,-27 806,-33 806,-39 806,-39 806,-121 806,-121 806,-127 800,-133 794,-133 794,-133 699,-133 699,-133 693,-133 687,-127 687,-121 687,-121 687,-39 687,-39 687,-33 693,-27 699,-27"/>
<text text-anchor="start" x="744.5" y="-12.8" font-family="Arial" font-weight="bold" font-size="14.00"> </text>
</g>
<!-- 10&#45;&gt;11 -->
<g id="edge11" class="edge">
<title>10&#45;&gt;11</title>
<path fill="none" stroke="#888888" d="M794.53,-195.81C790.89,-187.2 787.16,-178.38 783.48,-169.66"/>
<polygon fill="#888888" stroke="#888888" points="786.61,-168.1 779.5,-160.25 780.17,-170.82 786.61,-168.1"/>
</g>
<!-- 12 -->
<g id="node13" class="node">
<title>12</title>
<text text-anchor="start" x="894" y="-141.8" font-family="Arial" font-weight="bold" font-size="14.00"> ≥ 3.5</text>
<path fill="#f8766d" fill-opacity="0.513725" stroke="transparent" d="M860,-27C860,-27 962,-27 962,-27 968,-27 974,-33 974,-39 974,-39 974,-121 974,-121 974,-127 968,-133 962,-133 962,-133 860,-133 860,-133 854,-133 848,-127 848,-121 848,-121 848,-39 848,-39 848,-33 854,-27 860,-27"/>
<text text-anchor="start" x="849" y="-130.4" font-family="Arial" font-size="2.00"> </text>
<text text-anchor="start" x="849" y="-124.4" font-family="Arial" font-size="7.00"> &#160;12</text>
<text text-anchor="start" x="882" y="-107.8" font-family="Arial" font-weight="bold" font-size="14.00">Predict 0</text>
<text text-anchor="start" x="887.5" y="-90.8" font-family="Arial" font-weight="bold" font-size="14.00">n = 458</text>
<polygon fill="none" stroke="#333333" points="863,-63 863,-84 877,-84 877,-63 863,-63"/>
<text text-anchor="start" x="866" y="-69.8" font-family="Arial" font-size="14.00">0</text>
<polygon fill="none" stroke="#333333" points="877,-63 877,-84 906,-84 906,-63 877,-63"/>
<text text-anchor="start" x="880" y="-69.8" font-family="Arial" font-size="14.00">236</text>
<polygon fill="none" stroke="#333333" points="906,-63 906,-84 959,-84 959,-63 906,-63"/>
<text text-anchor="start" x="909" y="-69.8" font-family="Arial" font-size="14.00">51.53%</text>
<polygon fill="none" stroke="#333333" points="863,-42 863,-63 877,-63 877,-42 863,-42"/>
<text text-anchor="start" x="866" y="-48.8" font-family="Arial" font-size="14.00">1</text>
<polygon fill="none" stroke="#333333" points="877,-42 877,-63 906,-63 906,-42 877,-42"/>
<text text-anchor="start" x="880" y="-48.8" font-family="Arial" font-size="14.00">222</text>
<polygon fill="none" stroke="#333333" points="906,-42 906,-63 959,-63 959,-42 906,-42"/>
<text text-anchor="start" x="909" y="-48.8" font-family="Arial" font-size="14.00">48.47%</text>
<text text-anchor="start" x="909.5" y="-30.8" font-family="Arial" font-size="9.00"> </text>
<path fill="none" stroke="#333333" d="M860,-27C860,-27 962,-27 962,-27 968,-27 974,-33 974,-39 974,-39 974,-121 974,-121 974,-127 968,-133 962,-133 962,-133 860,-133 860,-133 854,-133 848,-127 848,-121 848,-121 848,-39 848,-39 848,-33 854,-27 860,-27"/>
<text text-anchor="start" x="909" y="-12.8" font-family="Arial" font-weight="bold" font-size="14.00"> </text>
</g>
<!-- 10&#45;&gt;12 -->
<g id="edge12" class="edge">
<title>10&#45;&gt;12</title>
<path fill="none" stroke="#888888" d="M861.88,-195.81C865.57,-187.2 869.34,-178.38 873.07,-169.66"/>
<polygon fill="#888888" stroke="#888888" points="876.38,-170.82 877.09,-160.25 869.94,-168.07 876.38,-170.82"/>
</g>
<!-- 14 -->
<g id="node14" class="node">
<title>14</title>
<text text-anchor="start" x="1057.5" y="-141.8" font-family="Arial" font-weight="bold" font-size="14.00"> &lt; 29.5</text>
<path fill="#00bfc4" fill-opacity="0.635294" stroke="transparent" d="M1028,-27C1028,-27 1130,-27 1130,-27 1136,-27 1142,-33 1142,-39 1142,-39 1142,-121 1142,-121 1142,-127 1136,-133 1130,-133 1130,-133 1028,-133 1028,-133 1022,-133 1016,-127 1016,-121 1016,-121 1016,-39 1016,-39 1016,-33 1022,-27 1028,-27"/>
<text text-anchor="start" x="1017" y="-130.4" font-family="Arial" font-size="2.00"> </text>
<text text-anchor="start" x="1017" y="-124.4" font-family="Arial" font-size="7.00"> &#160;14</text>
<text text-anchor="start" x="1050" y="-107.8" font-family="Arial" font-weight="bold" font-size="14.00">Predict 1</text>
<text text-anchor="start" x="1055.5" y="-90.8" font-family="Arial" font-weight="bold" font-size="14.00">n = 472</text>
<polygon fill="none" stroke="#333333" points="1031,-63 1031,-84 1045,-84 1045,-63 1031,-63"/>
<text text-anchor="start" x="1034" y="-69.8" font-family="Arial" font-size="14.00">0</text>
<polygon fill="none" stroke="#333333" points="1045,-63 1045,-84 1074,-84 1074,-63 1045,-63"/>
<text text-anchor="start" x="1048" y="-69.8" font-family="Arial" font-size="14.00">172</text>
<polygon fill="none" stroke="#333333" points="1074,-63 1074,-84 1127,-84 1127,-63 1074,-63"/>
<text text-anchor="start" x="1077" y="-69.8" font-family="Arial" font-size="14.00">36.44%</text>
<polygon fill="none" stroke="#333333" points="1031,-42 1031,-63 1045,-63 1045,-42 1031,-42"/>
<text text-anchor="start" x="1034" y="-48.8" font-family="Arial" font-size="14.00">1</text>
<polygon fill="none" stroke="#333333" points="1045,-42 1045,-63 1074,-63 1074,-42 1045,-42"/>
<text text-anchor="start" x="1048" y="-48.8" font-family="Arial" font-size="14.00">300</text>
<polygon fill="none" stroke="#333333" points="1074,-42 1074,-63 1127,-63 1127,-42 1074,-42"/>
<text text-anchor="start" x="1077" y="-48.8" font-family="Arial" font-size="14.00">63.56%</text>
<text text-anchor="start" x="1077.5" y="-30.8" font-family="Arial" font-size="9.00"> </text>
<path fill="none" stroke="#333333" d="M1028,-27C1028,-27 1130,-27 1130,-27 1136,-27 1142,-33 1142,-39 1142,-39 1142,-121 1142,-121 1142,-127 1136,-133 1130,-133 1130,-133 1028,-133 1028,-133 1022,-133 1016,-127 1016,-121 1016,-121 1016,-39 1016,-39 1016,-33 1022,-27 1028,-27"/>
<text text-anchor="start" x="1077" y="-12.8" font-family="Arial" font-weight="bold" font-size="14.00"> </text>
</g>
<!-- 13&#45;&gt;14 -->
<g id="edge13" class="edge">
<title>13&#45;&gt;14</title>
<path fill="none" stroke="#888888" d="M1079,-195.81C1079,-187.47 1079,-178.95 1079,-170.5"/>
<polygon fill="#888888" stroke="#888888" points="1082.5,-170.25 1079,-160.25 1075.5,-170.25 1082.5,-170.25"/>
</g>
<!-- 15 -->
<g id="node15" class="node">
<title>15</title>
<text text-anchor="start" x="1226" y="-141.8" font-family="Arial" font-weight="bold" font-size="14.00"> ≥ 29.5</text>
<path fill="#00bfc4" fill-opacity="0.811765" stroke="transparent" d="M1196,-27C1196,-27 1298,-27 1298,-27 1304,-27 1310,-33 1310,-39 1310,-39 1310,-121 1310,-121 1310,-127 1304,-133 1298,-133 1298,-133 1196,-133 1196,-133 1190,-133 1184,-127 1184,-121 1184,-121 1184,-39 1184,-39 1184,-33 1190,-27 1196,-27"/>
<text text-anchor="start" x="1185" y="-130.4" font-family="Arial" font-size="2.00"> </text>
<text text-anchor="start" x="1185" y="-124.4" font-family="Arial" font-size="7.00"> &#160;15</text>
<text text-anchor="start" x="1218" y="-107.8" font-family="Arial" font-weight="bold" font-size="14.00">Predict 1</text>
<text text-anchor="start" x="1223.5" y="-90.8" font-family="Arial" font-weight="bold" font-size="14.00">n = 678</text>
<polygon fill="none" stroke="#333333" points="1199,-63 1199,-84 1213,-84 1213,-63 1199,-63"/>
<text text-anchor="start" x="1202" y="-69.8" font-family="Arial" font-size="14.00">0</text>
<polygon fill="none" stroke="#333333" points="1213,-63 1213,-84 1242,-84 1242,-63 1213,-63"/>
<text text-anchor="start" x="1216" y="-69.8" font-family="Arial" font-size="14.00">127</text>
<polygon fill="none" stroke="#333333" points="1242,-63 1242,-84 1295,-84 1295,-63 1242,-63"/>
<text text-anchor="start" x="1245" y="-69.8" font-family="Arial" font-size="14.00">18.73%</text>
<polygon fill="none" stroke="#333333" points="1199,-42 1199,-63 1213,-63 1213,-42 1199,-42"/>
<text text-anchor="start" x="1202" y="-48.8" font-family="Arial" font-size="14.00">1</text>
<polygon fill="none" stroke="#333333" points="1213,-42 1213,-63 1242,-63 1242,-42 1213,-42"/>
<text text-anchor="start" x="1216" y="-48.8" font-family="Arial" font-size="14.00">551</text>
<polygon fill="none" stroke="#333333" points="1242,-42 1242,-63 1295,-63 1295,-42 1242,-42"/>
<text text-anchor="start" x="1245" y="-48.8" font-family="Arial" font-size="14.00">81.27%</text>
<text text-anchor="start" x="1245.5" y="-30.8" font-family="Arial" font-size="9.00"> </text>
<path fill="none" stroke="#333333" d="M1196,-27C1196,-27 1298,-27 1298,-27 1304,-27 1310,-33 1310,-39 1310,-39 1310,-121 1310,-121 1310,-127 1304,-133 1298,-133 1298,-133 1196,-133 1196,-133 1190,-133 1184,-127 1184,-121 1184,-121 1184,-39 1184,-39 1184,-33 1190,-27 1196,-27"/>
<text text-anchor="start" x="1245" y="-12.8" font-family="Arial" font-weight="bold" font-size="14.00"> </text>
</g>
<!-- 13&#45;&gt;15 -->
<g id="edge14" class="edge">
<title>13&#45;&gt;15</title>
<path fill="none" stroke="#888888" d="M1147.57,-195.81C1155.51,-186.65 1163.64,-177.26 1171.67,-167.99"/>
<polygon fill="#888888" stroke="#888888" points="1174.47,-170.1 1178.37,-160.25 1169.18,-165.52 1174.47,-170.1"/>
</g>
</g>
</svg>
