<?xml version="1.0" encoding="UTF-8" standalone="no"?>
<!DOCTYPE svg PUBLIC "-//W3C//DTD SVG 1.1//EN"
 "http://www.w3.org/Graphics/SVG/1.1/DTD/svg11.dtd">
<!-- Generated by graphviz version 2.50.0 (20211204.2007)
 -->
<!-- Pages: 1 -->
<svg width="1308pt" height="756pt"
 viewBox="0.00 0.00 1308.00 756.00" xmlns="http://www.w3.org/2000/svg" xmlns:xlink="http://www.w3.org/1999/xlink">
<g id="graph0" class="graph" transform="scale(1 1) rotate(0) translate(4 752)">
<polygon fill="white" stroke="transparent" points="-4,4 -4,-752 1304,-752 1304,4 -4,4"/>
<!-- 1 -->
<g id="node1" class="node">
<title>1</title>
<text text-anchor="start" x="639" y="-729.8" font-family="Arial" font-weight="bold" font-size="14.00"> </text>
<path fill="#ebebeb" stroke="transparent" d="M586,-615C586,-615 696,-615 696,-615 702,-615 708,-621 708,-627 708,-627 708,-709 708,-709 708,-715 702,-721 696,-721 696,-721 586,-721 586,-721 580,-721 574,-715 574,-709 574,-709 574,-627 574,-627 574,-621 580,-615 586,-615"/>
<text text-anchor="start" x="575" y="-718.4" font-family="Arial" font-size="2.00"> </text>
<text text-anchor="start" x="575" y="-712.4" font-family="Arial" font-size="7.00"> &#160;1</text>
<text text-anchor="start" x="612" y="-695.8" font-family="Arial" font-weight="bold" font-size="14.00">Predict 0</text>
<text text-anchor="start" x="613.5" y="-678.8" font-family="Arial" font-weight="bold" font-size="14.00">n = 2715</text>
<polygon fill="none" stroke="#333333" points="589,-651 589,-672 603,-672 603,-651 589,-651"/>
<text text-anchor="start" x="592" y="-657.8" font-family="Arial" font-size="14.00">0</text>
<polygon fill="none" stroke="#333333" points="603,-651 603,-672 640,-672 640,-651 603,-651"/>
<text text-anchor="start" x="606" y="-657.8" font-family="Arial" font-size="14.00">1373</text>
<polygon fill="none" stroke="#333333" points="640,-651 640,-672 693,-672 693,-651 640,-651"/>
<text text-anchor="start" x="643" y="-657.8" font-family="Arial" font-size="14.00">50.57%</text>
<polygon fill="none" stroke="#333333" points="589,-630 589,-651 603,-651 603,-630 589,-630"/>
<text text-anchor="start" x="592" y="-636.8" font-family="Arial" font-size="14.00">1</text>
<polygon fill="none" stroke="#333333" points="603,-630 603,-651 640,-651 640,-630 603,-630"/>
<text text-anchor="start" x="606" y="-636.8" font-family="Arial" font-size="14.00">1342</text>
<polygon fill="none" stroke="#333333" points="640,-630 640,-651 693,-651 693,-630 640,-630"/>
<text text-anchor="start" x="643" y="-636.8" font-family="Arial" font-size="14.00">49.43%</text>
<text text-anchor="start" x="639.5" y="-618.8" font-family="Arial" font-size="9.00"> </text>
<path fill="none" stroke="#333333" d="M586,-615C586,-615 696,-615 696,-615 702,-615 708,-621 708,-627 708,-627 708,-709 708,-709 708,-715 702,-721 696,-721 696,-721 586,-721 586,-721 580,-721 574,-715 574,-709 574,-709 574,-627 574,-627 574,-621 580,-615 586,-615"/>
<text text-anchor="start" x="614" y="-600.8" font-family="Arial" font-weight="bold" font-size="14.00">GenHlth</text>
</g>
<!-- 2 -->
<g id="node2" class="node">
<title>2</title>
<text text-anchor="start" x="475.5" y="-533.8" font-family="Arial" font-weight="bold" font-size="14.00"> &lt; 2.5</text>
<path fill="#ebebeb" stroke="transparent" d="M442,-419C442,-419 544,-419 544,-419 550,-419 556,-425 556,-431 556,-431 556,-513 556,-513 556,-519 550,-525 544,-525 544,-525 442,-525 442,-525 436,-525 430,-519 430,-513 430,-513 430,-431 430,-431 430,-425 436,-419 442,-419"/>
<text text-anchor="start" x="431" y="-522.4" font-family="Arial" font-size="2.00"> </text>
<text text-anchor="start" x="431" y="-516.4" font-family="Arial" font-size="7.00"> &#160;2</text>
<text text-anchor="start" x="464" y="-499.8" font-family="Arial" font-weight="bold" font-size="14.00">Predict 0</text>
<text text-anchor="start" x="465.5" y="-482.8" font-family="Arial" font-weight="bold" font-size="14.00">n = 1062</text>
<polygon fill="none" stroke="#333333" points="445,-455 445,-476 459,-476 459,-455 445,-455"/>
<text text-anchor="start" x="448" y="-461.8" font-family="Arial" font-size="14.00">0</text>
<polygon fill="none" stroke="#333333" points="459,-455 459,-476 488,-476 488,-455 459,-455"/>
<text text-anchor="start" x="462" y="-461.8" font-family="Arial" font-size="14.00">796</text>
<polygon fill="none" stroke="#333333" points="488,-455 488,-476 541,-476 541,-455 488,-455"/>
<text text-anchor="start" x="491" y="-461.8" font-family="Arial" font-size="14.00">74.95%</text>
<polygon fill="none" stroke="#333333" points="445,-434 445,-455 459,-455 459,-434 445,-434"/>
<text text-anchor="start" x="448" y="-440.8" font-family="Arial" font-size="14.00">1</text>
<polygon fill="none" stroke="#333333" points="459,-434 459,-455 488,-455 488,-434 459,-434"/>
<text text-anchor="start" x="462" y="-440.8" font-family="Arial" font-size="14.00">266</text>
<polygon fill="none" stroke="#333333" points="488,-434 488,-455 541,-455 541,-434 488,-434"/>
<text text-anchor="start" x="491" y="-440.8" font-family="Arial" font-size="14.00">25.05%</text>
<text text-anchor="start" x="491.5" y="-422.8" font-family="Arial" font-size="9.00"> </text>
<path fill="none" stroke="#333333" d="M442,-419C442,-419 544,-419 544,-419 550,-419 556,-425 556,-431 556,-431 556,-513 556,-513 556,-519 550,-525 544,-525 544,-525 442,-525 442,-525 436,-525 430,-519 430,-513 430,-513 430,-431 430,-431 430,-425 436,-419 442,-419"/>
<text text-anchor="start" x="480" y="-404.8" font-family="Arial" font-weight="bold" font-size="14.00">Age</text>
</g>
<!-- 1&#45;&gt;2 -->
<g id="edge1" class="edge">
<title>1&#45;&gt;2</title>
<path fill="none" stroke="#888888" d="M580.59,-587.81C573.67,-578.74 566.58,-569.45 559.58,-560.27"/>
<polygon fill="#888888" stroke="#888888" points="562.31,-558.08 553.46,-552.25 556.74,-562.32 562.31,-558.08"/>
</g>
<!-- 9 -->
<g id="node3" class="node">
<title>9</title>
<text text-anchor="start" x="792" y="-533.8" font-family="Arial" font-weight="bold" font-size="14.00"> ≥ 2.5</text>
<path fill="#ebebeb" stroke="transparent" d="M754,-419C754,-419 864,-419 864,-419 870,-419 876,-425 876,-431 876,-431 876,-513 876,-513 876,-519 870,-525 864,-525 864,-525 754,-525 754,-525 748,-525 742,-519 742,-513 742,-513 742,-431 742,-431 742,-425 748,-419 754,-419"/>
<text text-anchor="start" x="743" y="-522.4" font-family="Arial" font-size="2.00"> </text>
<text text-anchor="start" x="743" y="-516.4" font-family="Arial" font-size="7.00"> &#160;9</text>
<text text-anchor="start" x="780" y="-499.8" font-family="Arial" font-weight="bold" font-size="14.00">Predict 1</text>
<text text-anchor="start" x="781.5" y="-482.8" font-family="Arial" font-weight="bold" font-size="14.00">n = 1653</text>
<polygon fill="none" stroke="#333333" points="757,-455 757,-476 771,-476 771,-455 757,-455"/>
<text text-anchor="start" x="760" y="-461.8" font-family="Arial" font-size="14.00">0</text>
<polygon fill="none" stroke="#333333" points="771,-455 771,-476 808,-476 808,-455 771,-455"/>
<text text-anchor="start" x="782" y="-461.8" font-family="Arial" font-size="14.00">577</text>
<polygon fill="none" stroke="#333333" points="808,-455 808,-476 861,-476 861,-455 808,-455"/>
<text text-anchor="start" x="811" y="-461.8" font-family="Arial" font-size="14.00">34.91%</text>
<polygon fill="none" stroke="#333333" points="757,-434 757,-455 771,-455 771,-434 757,-434"/>
<text text-anchor="start" x="760" y="-440.8" font-family="Arial" font-size="14.00">1</text>
<polygon fill="none" stroke="#333333" points="771,-434 771,-455 808,-455 808,-434 771,-434"/>
<text text-anchor="start" x="774" y="-440.8" font-family="Arial" font-size="14.00">1076</text>
<polygon fill="none" stroke="#333333" points="808,-434 808,-455 861,-455 861,-434 808,-434"/>
<text text-anchor="start" x="811" y="-440.8" font-family="Arial" font-size="14.00">65.09%</text>
<text text-anchor="start" x="807.5" y="-422.8" font-family="Arial" font-size="9.00"> </text>
<path fill="none" stroke="#333333" d="M754,-419C754,-419 864,-419 864,-419 870,-419 876,-425 876,-431 876,-431 876,-513 876,-513 876,-519 870,-525 864,-525 864,-525 754,-525 754,-525 748,-525 742,-519 742,-513 742,-513 742,-431 742,-431 742,-425 748,-419 754,-419"/>
<text text-anchor="start" x="796" y="-404.8" font-family="Arial" font-weight="bold" font-size="14.00">BMI</text>
</g>
<!-- 1&#45;&gt;9 -->
<g id="edge2" class="edge">
<title>1&#45;&gt;9</title>
<path fill="none" stroke="#888888" d="M709.57,-587.81C717.51,-578.65 725.64,-569.26 733.67,-559.99"/>
<polygon fill="#888888" stroke="#888888" points="736.47,-562.1 740.37,-552.25 731.18,-557.52 736.47,-562.1"/>
</g>
<!-- 3 -->
<g id="node4" class="node">
<title>3</title>
<text text-anchor="start" x="218.5" y="-337.8" font-family="Arial" font-weight="bold" font-size="14.00"> &lt; 9.5</text>
<text text-anchor="start" x="144" y="-272.3" font-family="Arial" font-size="14.00"> &#160;&#160;&#160;&#160;&#160;&#160;</text>
<path fill="#ebebeb" stroke="transparent" d="M185,-223C185,-223 287,-223 287,-223 293,-223 299,-229 299,-235 299,-235 299,-317 299,-317 299,-323 293,-329 287,-329 287,-329 185,-329 185,-329 179,-329 173,-323 173,-317 173,-317 173,-235 173,-235 173,-229 179,-223 185,-223"/>
<text text-anchor="start" x="174" y="-326.4" font-family="Arial" font-size="2.00"> </text>
<text text-anchor="start" x="174" y="-320.4" font-family="Arial" font-size="7.00"> &#160;3</text>
<text text-anchor="start" x="207" y="-303.8" font-family="Arial" font-weight="bold" font-size="14.00">Predict 0</text>
<text text-anchor="start" x="212.5" y="-286.8" font-family="Arial" font-weight="bold" font-size="14.00">n = 699</text>
<polygon fill="none" stroke="#333333" points="188,-259 188,-280 202,-280 202,-259 188,-259"/>
<text text-anchor="start" x="191" y="-265.8" font-family="Arial" font-size="14.00">0</text>
<polygon fill="none" stroke="#333333" points="202,-259 202,-280 231,-280 231,-259 202,-259"/>
<text text-anchor="start" x="205" y="-265.8" font-family="Arial" font-size="14.00">586</text>
<polygon fill="none" stroke="#333333" points="231,-259 231,-280 284,-280 284,-259 231,-259"/>
<text text-anchor="start" x="234" y="-265.8" font-family="Arial" font-size="14.00">83.83%</text>
<polygon fill="none" stroke="#333333" points="188,-238 188,-259 202,-259 202,-238 188,-238"/>
<text text-anchor="start" x="191" y="-244.8" font-family="Arial" font-size="14.00">1</text>
<polygon fill="none" stroke="#333333" points="202,-238 202,-259 231,-259 231,-238 202,-238"/>
<text text-anchor="start" x="206" y="-244.8" font-family="Arial" font-size="14.00">113</text>
<polygon fill="none" stroke="#333333" points="231,-238 231,-259 284,-259 284,-238 231,-238"/>
<text text-anchor="start" x="234" y="-244.8" font-family="Arial" font-size="14.00">16.17%</text>
<text text-anchor="start" x="234.5" y="-226.8" font-family="Arial" font-size="9.00"> </text>
<path fill="none" stroke="#333333" d="M185,-223C185,-223 287,-223 287,-223 293,-223 299,-229 299,-235 299,-235 299,-317 299,-317 299,-323 293,-329 287,-329 287,-329 185,-329 185,-329 179,-329 173,-323 173,-317 173,-317 173,-235 173,-235 173,-229 179,-223 185,-223"/>
<text text-anchor="start" x="301" y="-272.3" font-family="Arial" font-size="14.00"> &#160;&#160;&#160;&#160;&#160;&#160;</text>
<text text-anchor="start" x="165.5" y="-208.8" font-family="Arial" font-weight="bold" font-size="14.00">HeartDiseaseorAttack</text>
</g>
<!-- 2&#45;&gt;3 -->
<g id="edge3" class="edge">
<title>2&#45;&gt;3</title>
<path fill="none" stroke="#888888" d="M417.97,-414.37C395.61,-397.48 370.62,-378.62 346.49,-360.41"/>
<polygon fill="#888888" stroke="#888888" points="348.44,-357.49 338.35,-354.26 344.22,-363.08 348.44,-357.49"/>
</g>
<!-- 6 -->
<g id="node5" class="node">
<title>6</title>
<text text-anchor="start" x="476" y="-337.8" font-family="Arial" font-weight="bold" font-size="14.00"> ≥ 9.5</text>
<path fill="#ebebeb" stroke="transparent" d="M442,-223C442,-223 544,-223 544,-223 550,-223 556,-229 556,-235 556,-235 556,-317 556,-317 556,-323 550,-329 544,-329 544,-329 442,-329 442,-329 436,-329 430,-323 430,-317 430,-317 430,-235 430,-235 430,-229 436,-223 442,-223"/>
<text text-anchor="start" x="431" y="-326.4" font-family="Arial" font-size="2.00"> </text>
<text text-anchor="start" x="431" y="-320.4" font-family="Arial" font-size="7.00"> &#160;6</text>
<text text-anchor="start" x="464" y="-303.8" font-family="Arial" font-weight="bold" font-size="14.00">Predict 0</text>
<text text-anchor="start" x="469.5" y="-286.8" font-family="Arial" font-weight="bold" font-size="14.00">n = 363</text>
<polygon fill="none" stroke="#333333" points="445,-259 445,-280 459,-280 459,-259 445,-259"/>
<text text-anchor="start" x="448" y="-265.8" font-family="Arial" font-size="14.00">0</text>
<polygon fill="none" stroke="#333333" points="459,-259 459,-280 488,-280 488,-259 459,-259"/>
<text text-anchor="start" x="462" y="-265.8" font-family="Arial" font-size="14.00">210</text>
<polygon fill="none" stroke="#333333" points="488,-259 488,-280 541,-280 541,-259 488,-259"/>
<text text-anchor="start" x="491" y="-265.8" font-family="Arial" font-size="14.00">57.85%</text>
<polygon fill="none" stroke="#333333" points="445,-238 445,-259 459,-259 459,-238 445,-238"/>
<text text-anchor="start" x="448" y="-244.8" font-family="Arial" font-size="14.00">1</text>
<polygon fill="none" stroke="#333333" points="459,-238 459,-259 488,-259 488,-238 459,-238"/>
<text text-anchor="start" x="462" y="-244.8" font-family="Arial" font-size="14.00">153</text>
<polygon fill="none" stroke="#333333" points="488,-238 488,-259 541,-259 541,-238 488,-238"/>
<text text-anchor="start" x="491" y="-244.8" font-family="Arial" font-size="14.00">42.15%</text>
<text text-anchor="start" x="491.5" y="-226.8" font-family="Arial" font-size="9.00"> </text>
<path fill="none" stroke="#333333" d="M442,-223C442,-223 544,-223 544,-223 550,-223 556,-229 556,-235 556,-235 556,-317 556,-317 556,-323 550,-329 544,-329 544,-329 442,-329 442,-329 436,-329 430,-323 430,-317 430,-317 430,-235 430,-235 430,-229 436,-223 442,-223"/>
<text text-anchor="start" x="480" y="-208.8" font-family="Arial" font-weight="bold" font-size="14.00">BMI</text>
</g>
<!-- 2&#45;&gt;6 -->
<g id="edge4" class="edge">
<title>2&#45;&gt;6</title>
<path fill="none" stroke="#888888" d="M493,-391.81C493,-383.47 493,-374.95 493,-366.5"/>
<polygon fill="#888888" stroke="#888888" points="496.5,-366.25 493,-356.25 489.5,-366.25 496.5,-366.25"/>
</g>
<!-- 10 -->
<g id="node10" class="node">
<title>10</title>
<text text-anchor="start" x="787.5" y="-337.8" font-family="Arial" font-weight="bold" font-size="14.00"> &lt; 33.5</text>
<path fill="#ebebeb" stroke="transparent" d="M758,-223C758,-223 860,-223 860,-223 866,-223 872,-229 872,-235 872,-235 872,-317 872,-317 872,-323 866,-329 860,-329 860,-329 758,-329 758,-329 752,-329 746,-323 746,-317 746,-317 746,-235 746,-235 746,-229 752,-223 758,-223"/>
<text text-anchor="start" x="747" y="-326.4" font-family="Arial" font-size="2.00"> </text>
<text text-anchor="start" x="747" y="-320.4" font-family="Arial" font-size="7.00"> &#160;10</text>
<text text-anchor="start" x="780" y="-303.8" font-family="Arial" font-weight="bold" font-size="14.00">Predict 1</text>
<text text-anchor="start" x="782" y="-286.8" font-family="Arial" font-weight="bold" font-size="14.00">n = 1144</text>
<polygon fill="none" stroke="#333333" points="761,-259 761,-280 775,-280 775,-259 761,-259"/>
<text text-anchor="start" x="764" y="-265.8" font-family="Arial" font-size="14.00">0</text>
<polygon fill="none" stroke="#333333" points="775,-259 775,-280 804,-280 804,-259 775,-259"/>
<text text-anchor="start" x="778" y="-265.8" font-family="Arial" font-size="14.00">473</text>
<polygon fill="none" stroke="#333333" points="804,-259 804,-280 857,-280 857,-259 804,-259"/>
<text text-anchor="start" x="807" y="-265.8" font-family="Arial" font-size="14.00">41.35%</text>
<polygon fill="none" stroke="#333333" points="761,-238 761,-259 775,-259 775,-238 761,-238"/>
<text text-anchor="start" x="764" y="-244.8" font-family="Arial" font-size="14.00">1</text>
<polygon fill="none" stroke="#333333" points="775,-238 775,-259 804,-259 804,-238 775,-238"/>
<text text-anchor="start" x="778" y="-244.8" font-family="Arial" font-size="14.00">671</text>
<polygon fill="none" stroke="#333333" points="804,-238 804,-259 857,-259 857,-238 804,-238"/>
<text text-anchor="start" x="807" y="-244.8" font-family="Arial" font-size="14.00">58.65%</text>
<text text-anchor="start" x="807.5" y="-226.8" font-family="Arial" font-size="9.00"> </text>
<path fill="none" stroke="#333333" d="M758,-223C758,-223 860,-223 860,-223 866,-223 872,-229 872,-235 872,-235 872,-317 872,-317 872,-323 866,-329 860,-329 860,-329 758,-329 758,-329 752,-329 746,-323 746,-317 746,-317 746,-235 746,-235 746,-229 752,-223 758,-223"/>
<text text-anchor="start" x="784.5" y="-208.8" font-family="Arial" font-weight="bold" font-size="14.00">HighBP</text>
</g>
<!-- 9&#45;&gt;10 -->
<g id="edge9" class="edge">
<title>9&#45;&gt;10</title>
<path fill="none" stroke="#888888" d="M809,-391.81C809,-383.47 809,-374.95 809,-366.5"/>
<polygon fill="#888888" stroke="#888888" points="812.5,-366.25 809,-356.25 805.5,-366.25 812.5,-366.25"/>
</g>
<!-- 13 -->
<g id="node11" class="node">
<title>13</title>
<text text-anchor="start" x="1039" y="-337.8" font-family="Arial" font-weight="bold" font-size="14.00"> ≥ 33.5</text>
<path fill="#ebebeb" stroke="transparent" d="M1009,-223C1009,-223 1111,-223 1111,-223 1117,-223 1123,-229 1123,-235 1123,-235 1123,-317 1123,-317 1123,-323 1117,-329 1111,-329 1111,-329 1009,-329 1009,-329 1003,-329 997,-323 997,-317 997,-317 997,-235 997,-235 997,-229 1003,-223 1009,-223"/>
<text text-anchor="start" x="998" y="-326.4" font-family="Arial" font-size="2.00"> </text>
<text text-anchor="start" x="998" y="-320.4" font-family="Arial" font-size="7.00"> &#160;13</text>
<text text-anchor="start" x="1031" y="-303.8" font-family="Arial" font-weight="bold" font-size="14.00">Predict 1</text>
<text text-anchor="start" x="1036.5" y="-286.8" font-family="Arial" font-weight="bold" font-size="14.00">n = 509</text>
<polygon fill="none" stroke="#333333" points="1012,-259 1012,-280 1026,-280 1026,-259 1012,-259"/>
<text text-anchor="start" x="1015" y="-265.8" font-family="Arial" font-size="14.00">0</text>
<polygon fill="none" stroke="#333333" points="1026,-259 1026,-280 1055,-280 1055,-259 1026,-259"/>
<text text-anchor="start" x="1029" y="-265.8" font-family="Arial" font-size="14.00">104</text>
<polygon fill="none" stroke="#333333" points="1055,-259 1055,-280 1108,-280 1108,-259 1055,-259"/>
<text text-anchor="start" x="1058" y="-265.8" font-family="Arial" font-size="14.00">20.43%</text>
<polygon fill="none" stroke="#333333" points="1012,-238 1012,-259 1026,-259 1026,-238 1012,-238"/>
<text text-anchor="start" x="1015" y="-244.8" font-family="Arial" font-size="14.00">1</text>
<polygon fill="none" stroke="#333333" points="1026,-238 1026,-259 1055,-259 1055,-238 1026,-238"/>
<text text-anchor="start" x="1029" y="-244.8" font-family="Arial" font-size="14.00">405</text>
<polygon fill="none" stroke="#333333" points="1055,-238 1055,-259 1108,-259 1108,-238 1055,-238"/>
<text text-anchor="start" x="1058" y="-244.8" font-family="Arial" font-size="14.00">79.57%</text>
<text text-anchor="start" x="1058.5" y="-226.8" font-family="Arial" font-size="9.00"> </text>
<path fill="none" stroke="#333333" d="M1009,-223C1009,-223 1111,-223 1111,-223 1117,-223 1123,-229 1123,-235 1123,-235 1123,-317 1123,-317 1123,-323 1117,-329 1111,-329 1111,-329 1009,-329 1009,-329 1003,-329 997,-323 997,-317 997,-317 997,-235 997,-235 997,-229 1003,-223 1009,-223"/>
<text text-anchor="start" x="1047" y="-208.8" font-family="Arial" font-weight="bold" font-size="14.00">Age</text>
</g>
<!-- 9&#45;&gt;13 -->
<g id="edge10" class="edge">
<title>9&#45;&gt;13</title>
<path fill="none" stroke="#888888" d="M888.07,-409.88C916.31,-388.06 948.2,-363.41 976.78,-341.32"/>
<polygon fill="#888888" stroke="#888888" points="978.98,-344.05 984.75,-335.16 974.7,-338.51 978.98,-344.05"/>
</g>
<!-- 4 -->
<g id="node6" class="node">
<title>4</title>
<text text-anchor="start" x="57.5" y="-141.8" font-family="Arial" font-weight="bold" font-size="14.00"> &lt; 0.5</text>
<path fill="#f8766d" fill-opacity="0.847059" stroke="transparent" d="M24,-27C24,-27 126,-27 126,-27 132,-27 138,-33 138,-39 138,-39 138,-121 138,-121 138,-127 132,-133 126,-133 126,-133 24,-133 24,-133 18,-133 12,-127 12,-121 12,-121 12,-39 12,-39 12,-33 18,-27 24,-27"/>
<text text-anchor="start" x="13" y="-130.4" font-family="Arial" font-size="2.00"> </text>
<text text-anchor="start" x="13" y="-124.4" font-family="Arial" font-size="7.00"> &#160;4</text>
<text text-anchor="start" x="46" y="-107.8" font-family="Arial" font-weight="bold" font-size="14.00">Predict 0</text>
<text text-anchor="start" x="51.5" y="-90.8" font-family="Arial" font-weight="bold" font-size="14.00">n = 687</text>
<polygon fill="none" stroke="#333333" points="27,-63 27,-84 41,-84 41,-63 27,-63"/>
<text text-anchor="start" x="30" y="-69.8" font-family="Arial" font-size="14.00">0</text>
<polygon fill="none" stroke="#333333" points="41,-63 41,-84 70,-84 70,-63 41,-63"/>
<text text-anchor="start" x="44" y="-69.8" font-family="Arial" font-size="14.00">583</text>
<polygon fill="none" stroke="#333333" points="70,-63 70,-84 123,-84 123,-63 70,-63"/>
<text text-anchor="start" x="73" y="-69.8" font-family="Arial" font-size="14.00">84.86%</text>
<polygon fill="none" stroke="#333333" points="27,-42 27,-63 41,-63 41,-42 27,-42"/>
<text text-anchor="start" x="30" y="-48.8" font-family="Arial" font-size="14.00">1</text>
<polygon fill="none" stroke="#333333" points="41,-42 41,-63 70,-63 70,-42 41,-42"/>
<text text-anchor="start" x="44" y="-48.8" font-family="Arial" font-size="14.00">104</text>
<polygon fill="none" stroke="#333333" points="70,-42 70,-63 123,-63 123,-42 70,-42"/>
<text text-anchor="start" x="73" y="-48.8" font-family="Arial" font-size="14.00">15.14%</text>
<text text-anchor="start" x="73.5" y="-30.8" font-family="Arial" font-size="9.00"> </text>
<path fill="none" stroke="#333333" d="M24,-27C24,-27 126,-27 126,-27 132,-27 138,-33 138,-39 138,-39 138,-121 138,-121 138,-127 132,-133 126,-133 126,-133 24,-133 24,-133 18,-133 12,-127 12,-121 12,-121 12,-39 12,-39 12,-33 18,-27 24,-27"/>
<text text-anchor="start" x="73" y="-12.8" font-family="Arial" font-weight="bold" font-size="14.00"> </text>
</g>
<!-- 3&#45;&gt;4 -->
<g id="edge5" class="edge">
<title>3&#45;&gt;4</title>
<path fill="none" stroke="#888888" d="M170.28,-195.81C162.67,-186.65 154.88,-177.26 147.2,-167.99"/>
<polygon fill="#888888" stroke="#888888" points="149.85,-165.71 140.77,-160.25 144.46,-170.18 149.85,-165.71"/>
</g>
<!-- 5 -->
<g id="node7" class="node">
<title>5</title>
<text text-anchor="start" x="219.5" y="-141.8" font-family="Arial" font-weight="bold" font-size="14.00"> ≥ 0.5</text>
<path fill="#00bfc4" fill-opacity="0.749020" stroke="transparent" d="M193,-27C193,-27 280,-27 280,-27 286,-27 292,-33 292,-39 292,-39 292,-121 292,-121 292,-127 286,-133 280,-133 280,-133 193,-133 193,-133 187,-133 181,-127 181,-121 181,-121 181,-39 181,-39 181,-33 187,-27 193,-27"/>
<text text-anchor="start" x="182" y="-130.4" font-family="Arial" font-size="2.00"> </text>
<text text-anchor="start" x="182" y="-124.4" font-family="Arial" font-size="7.00"> &#160;5</text>
<text text-anchor="start" x="207.5" y="-107.8" font-family="Arial" font-weight="bold" font-size="14.00">Predict 1</text>
<text text-anchor="start" x="216.5" y="-90.8" font-family="Arial" font-weight="bold" font-size="14.00">n = 12</text>
<polygon fill="none" stroke="#333333" points="196,-63 196,-84 210,-84 210,-63 196,-63"/>
<text text-anchor="start" x="199" y="-69.8" font-family="Arial" font-size="14.00">0</text>
<polygon fill="none" stroke="#333333" points="210,-63 210,-84 224,-84 224,-63 210,-63"/>
<text text-anchor="start" x="213" y="-69.8" font-family="Arial" font-size="14.00">3</text>
<polygon fill="none" stroke="#333333" points="224,-63 224,-84 277,-84 277,-63 224,-63"/>
<text text-anchor="start" x="227" y="-69.8" font-family="Arial" font-size="14.00">25.00%</text>
<polygon fill="none" stroke="#333333" points="196,-42 196,-63 210,-63 210,-42 196,-42"/>
<text text-anchor="start" x="199" y="-48.8" font-family="Arial" font-size="14.00">1</text>
<polygon fill="none" stroke="#333333" points="210,-42 210,-63 224,-63 224,-42 210,-42"/>
<text text-anchor="start" x="213" y="-48.8" font-family="Arial" font-size="14.00">9</text>
<polygon fill="none" stroke="#333333" points="224,-42 224,-63 277,-63 277,-42 224,-42"/>
<text text-anchor="start" x="227" y="-48.8" font-family="Arial" font-size="14.00">75.00%</text>
<text text-anchor="start" x="235" y="-30.8" font-family="Arial" font-size="9.00"> </text>
<path fill="none" stroke="#333333" d="M193,-27C193,-27 280,-27 280,-27 286,-27 292,-33 292,-39 292,-39 292,-121 292,-121 292,-127 286,-133 280,-133 280,-133 193,-133 193,-133 187,-133 181,-127 181,-121 181,-121 181,-39 181,-39 181,-33 187,-27 193,-27"/>
<text text-anchor="start" x="234.5" y="-12.8" font-family="Arial" font-weight="bold" font-size="14.00"> </text>
</g>
<!-- 3&#45;&gt;5 -->
<g id="edge6" class="edge">
<title>3&#45;&gt;5</title>
<path fill="none" stroke="#888888" d="M236,-195.81C236,-187.47 236,-178.95 236,-170.5"/>
<polygon fill="#888888" stroke="#888888" points="239.5,-170.25 236,-160.25 232.5,-170.25 239.5,-170.25"/>
</g>
<!-- 7 -->
<g id="node8" class="node">
<title>7</title>
<text text-anchor="start" x="375.5" y="-141.8" font-family="Arial" font-weight="bold" font-size="14.00"> &lt; 28.5</text>
<path fill="#f8766d" fill-opacity="0.670588" stroke="transparent" d="M346,-27C346,-27 448,-27 448,-27 454,-27 460,-33 460,-39 460,-39 460,-121 460,-121 460,-127 454,-133 448,-133 448,-133 346,-133 346,-133 340,-133 334,-127 334,-121 334,-121 334,-39 334,-39 334,-33 340,-27 346,-27"/>
<text text-anchor="start" x="335" y="-130.4" font-family="Arial" font-size="2.00"> </text>
<text text-anchor="start" x="335" y="-124.4" font-family="Arial" font-size="7.00"> &#160;7</text>
<text text-anchor="start" x="368" y="-107.8" font-family="Arial" font-weight="bold" font-size="14.00">Predict 0</text>
<text text-anchor="start" x="373.5" y="-90.8" font-family="Arial" font-weight="bold" font-size="14.00">n = 237</text>
<polygon fill="none" stroke="#333333" points="349,-63 349,-84 363,-84 363,-63 349,-63"/>
<text text-anchor="start" x="352" y="-69.8" font-family="Arial" font-size="14.00">0</text>
<polygon fill="none" stroke="#333333" points="363,-63 363,-84 392,-84 392,-63 363,-63"/>
<text text-anchor="start" x="366" y="-69.8" font-family="Arial" font-size="14.00">159</text>
<polygon fill="none" stroke="#333333" points="392,-63 392,-84 445,-84 445,-63 392,-63"/>
<text text-anchor="start" x="395" y="-69.8" font-family="Arial" font-size="14.00">67.09%</text>
<polygon fill="none" stroke="#333333" points="349,-42 349,-63 363,-63 363,-42 349,-42"/>
<text text-anchor="start" x="352" y="-48.8" font-family="Arial" font-size="14.00">1</text>
<polygon fill="none" stroke="#333333" points="363,-42 363,-63 392,-63 392,-42 363,-42"/>
<text text-anchor="start" x="373" y="-48.8" font-family="Arial" font-size="14.00">78</text>
<polygon fill="none" stroke="#333333" points="392,-42 392,-63 445,-63 445,-42 392,-42"/>
<text text-anchor="start" x="395" y="-48.8" font-family="Arial" font-size="14.00">32.91%</text>
<text text-anchor="start" x="395.5" y="-30.8" font-family="Arial" font-size="9.00"> </text>
<path fill="none" stroke="#333333" d="M346,-27C346,-27 448,-27 448,-27 454,-27 460,-33 460,-39 460,-39 460,-121 460,-121 460,-127 454,-133 448,-133 448,-133 346,-133 346,-133 340,-133 334,-127 334,-121 334,-121 334,-39 334,-39 334,-33 340,-27 346,-27"/>
<text text-anchor="start" x="395" y="-12.8" font-family="Arial" font-weight="bold" font-size="14.00"> </text>
</g>
<!-- 6&#45;&gt;7 -->
<g id="edge7" class="edge">
<title>6&#45;&gt;7</title>
<path fill="none" stroke="#888888" d="M453.81,-195.81C449.5,-187.1 445.1,-178.2 440.74,-169.38"/>
<polygon fill="#888888" stroke="#888888" points="443.79,-167.66 436.22,-160.25 437.51,-170.76 443.79,-167.66"/>
</g>
<!-- 8 -->
<g id="node9" class="node">
<title>8</title>
<text text-anchor="start" x="541.5" y="-141.8" font-family="Arial" font-weight="bold" font-size="14.00"> ≥ 28.5</text>
<path fill="#00bfc4" fill-opacity="0.596078" stroke="transparent" d="M515,-27C515,-27 610,-27 610,-27 616,-27 622,-33 622,-39 622,-39 622,-121 622,-121 622,-127 616,-133 610,-133 610,-133 515,-133 515,-133 509,-133 503,-127 503,-121 503,-121 503,-39 503,-39 503,-33 509,-27 515,-27"/>
<text text-anchor="start" x="504" y="-130.4" font-family="Arial" font-size="2.00"> </text>
<text text-anchor="start" x="504" y="-124.4" font-family="Arial" font-size="7.00"> &#160;8</text>
<text text-anchor="start" x="533.5" y="-107.8" font-family="Arial" font-weight="bold" font-size="14.00">Predict 1</text>
<text text-anchor="start" x="539" y="-90.8" font-family="Arial" font-weight="bold" font-size="14.00">n = 126</text>
<polygon fill="none" stroke="#333333" points="518,-63 518,-84 532,-84 532,-63 518,-63"/>
<text text-anchor="start" x="521" y="-69.8" font-family="Arial" font-size="14.00">0</text>
<polygon fill="none" stroke="#333333" points="532,-63 532,-84 554,-84 554,-63 532,-63"/>
<text text-anchor="start" x="535" y="-69.8" font-family="Arial" font-size="14.00">51</text>
<polygon fill="none" stroke="#333333" points="554,-63 554,-84 607,-84 607,-63 554,-63"/>
<text text-anchor="start" x="557" y="-69.8" font-family="Arial" font-size="14.00">40.48%</text>
<polygon fill="none" stroke="#333333" points="518,-42 518,-63 532,-63 532,-42 518,-42"/>
<text text-anchor="start" x="521" y="-48.8" font-family="Arial" font-size="14.00">1</text>
<polygon fill="none" stroke="#333333" points="532,-42 532,-63 554,-63 554,-42 532,-42"/>
<text text-anchor="start" x="535" y="-48.8" font-family="Arial" font-size="14.00">75</text>
<polygon fill="none" stroke="#333333" points="554,-42 554,-63 607,-63 607,-42 554,-42"/>
<text text-anchor="start" x="557" y="-48.8" font-family="Arial" font-size="14.00">59.52%</text>
<text text-anchor="start" x="561" y="-30.8" font-family="Arial" font-size="9.00"> </text>
<path fill="none" stroke="#333333" d="M515,-27C515,-27 610,-27 610,-27 616,-27 622,-33 622,-39 622,-39 622,-121 622,-121 622,-127 616,-133 610,-133 610,-133 515,-133 515,-133 509,-133 503,-127 503,-121 503,-121 503,-39 503,-39 503,-33 509,-27 515,-27"/>
<text text-anchor="start" x="560.5" y="-12.8" font-family="Arial" font-weight="bold" font-size="14.00"> </text>
</g>
<!-- 6&#45;&gt;8 -->
<g id="edge8" class="edge">
<title>6&#45;&gt;8</title>
<path fill="none" stroke="#888888" d="M521.16,-195.81C524.2,-187.29 527.3,-178.57 530.37,-169.94"/>
<polygon fill="#888888" stroke="#888888" points="533.76,-170.84 533.81,-160.25 527.17,-168.5 533.76,-170.84"/>
</g>
<!-- 11 -->
<g id="node12" class="node">
<title>11</title>
<text text-anchor="start" x="709.5" y="-141.8" font-family="Arial" font-weight="bold" font-size="14.00"> &lt; 0.5</text>
<path fill="#f8766d" fill-opacity="0.600000" stroke="transparent" d="M676,-27C676,-27 778,-27 778,-27 784,-27 790,-33 790,-39 790,-39 790,-121 790,-121 790,-127 784,-133 778,-133 778,-133 676,-133 676,-133 670,-133 664,-127 664,-121 664,-121 664,-39 664,-39 664,-33 670,-27 676,-27"/>
<text text-anchor="start" x="665" y="-130.4" font-family="Arial" font-size="2.00"> </text>
<text text-anchor="start" x="665" y="-124.4" font-family="Arial" font-size="7.00"> &#160;11</text>
<text text-anchor="start" x="698" y="-107.8" font-family="Arial" font-weight="bold" font-size="14.00">Predict 0</text>
<text text-anchor="start" x="703.5" y="-90.8" font-family="Arial" font-weight="bold" font-size="14.00">n = 389</text>
<polygon fill="none" stroke="#333333" points="679,-63 679,-84 693,-84 693,-63 679,-63"/>
<text text-anchor="start" x="682" y="-69.8" font-family="Arial" font-size="14.00">0</text>
<polygon fill="none" stroke="#333333" points="693,-63 693,-84 722,-84 722,-63 693,-63"/>
<text text-anchor="start" x="696" y="-69.8" font-family="Arial" font-size="14.00">233</text>
<polygon fill="none" stroke="#333333" points="722,-63 722,-84 775,-84 775,-63 722,-63"/>
<text text-anchor="start" x="725" y="-69.8" font-family="Arial" font-size="14.00">59.90%</text>
<polygon fill="none" stroke="#333333" points="679,-42 679,-63 693,-63 693,-42 679,-42"/>
<text text-anchor="start" x="682" y="-48.8" font-family="Arial" font-size="14.00">1</text>
<polygon fill="none" stroke="#333333" points="693,-42 693,-63 722,-63 722,-42 693,-42"/>
<text text-anchor="start" x="696" y="-48.8" font-family="Arial" font-size="14.00">156</text>
<polygon fill="none" stroke="#333333" points="722,-42 722,-63 775,-63 775,-42 722,-42"/>
<text text-anchor="start" x="725" y="-48.8" font-family="Arial" font-size="14.00">40.10%</text>
<text text-anchor="start" x="725.5" y="-30.8" font-family="Arial" font-size="9.00"> </text>
<path fill="none" stroke="#333333" d="M676,-27C676,-27 778,-27 778,-27 784,-27 790,-33 790,-39 790,-39 790,-121 790,-121 790,-127 784,-133 778,-133 778,-133 676,-133 676,-133 670,-133 664,-127 664,-121 664,-121 664,-39 664,-39 664,-33 670,-27 676,-27"/>
<text text-anchor="start" x="725" y="-12.8" font-family="Arial" font-weight="bold" font-size="14.00"> </text>
</g>
<!-- 10&#45;&gt;11 -->
<g id="edge11" class="edge">
<title>10&#45;&gt;11</title>
<path fill="none" stroke="#888888" d="M775.53,-195.81C771.89,-187.2 768.16,-178.38 764.48,-169.66"/>
<polygon fill="#888888" stroke="#888888" points="767.61,-168.1 760.5,-160.25 761.17,-170.82 767.61,-168.1"/>
</g>
<!-- 12 -->
<g id="node13" class="node">
<title>12</title>
<text text-anchor="start" x="878" y="-141.8" font-family="Arial" font-weight="bold" font-size="14.00"> ≥ 0.5</text>
<path fill="#00bfc4" fill-opacity="0.682353" stroke="transparent" d="M844,-27C844,-27 946,-27 946,-27 952,-27 958,-33 958,-39 958,-39 958,-121 958,-121 958,-127 952,-133 946,-133 946,-133 844,-133 844,-133 838,-133 832,-127 832,-121 832,-121 832,-39 832,-39 832,-33 838,-27 844,-27"/>
<text text-anchor="start" x="833" y="-130.4" font-family="Arial" font-size="2.00"> </text>
<text text-anchor="start" x="833" y="-124.4" font-family="Arial" font-size="7.00"> &#160;12</text>
<text text-anchor="start" x="866" y="-107.8" font-family="Arial" font-weight="bold" font-size="14.00">Predict 1</text>
<text text-anchor="start" x="871.5" y="-90.8" font-family="Arial" font-weight="bold" font-size="14.00">n = 755</text>
<polygon fill="none" stroke="#333333" points="847,-63 847,-84 861,-84 861,-63 847,-63"/>
<text text-anchor="start" x="850" y="-69.8" font-family="Arial" font-size="14.00">0</text>
<polygon fill="none" stroke="#333333" points="861,-63 861,-84 890,-84 890,-63 861,-63"/>
<text text-anchor="start" x="864" y="-69.8" font-family="Arial" font-size="14.00">240</text>
<polygon fill="none" stroke="#333333" points="890,-63 890,-84 943,-84 943,-63 890,-63"/>
<text text-anchor="start" x="893" y="-69.8" font-family="Arial" font-size="14.00">31.79%</text>
<polygon fill="none" stroke="#333333" points="847,-42 847,-63 861,-63 861,-42 847,-42"/>
<text text-anchor="start" x="850" y="-48.8" font-family="Arial" font-size="14.00">1</text>
<polygon fill="none" stroke="#333333" points="861,-42 861,-63 890,-63 890,-42 861,-42"/>
<text text-anchor="start" x="864" y="-48.8" font-family="Arial" font-size="14.00">515</text>
<polygon fill="none" stroke="#333333" points="890,-42 890,-63 943,-63 943,-42 890,-42"/>
<text text-anchor="start" x="893" y="-48.8" font-family="Arial" font-size="14.00">68.21%</text>
<text text-anchor="start" x="893.5" y="-30.8" font-family="Arial" font-size="9.00"> </text>
<path fill="none" stroke="#333333" d="M844,-27C844,-27 946,-27 946,-27 952,-27 958,-33 958,-39 958,-39 958,-121 958,-121 958,-127 952,-133 946,-133 946,-133 844,-133 844,-133 838,-133 832,-127 832,-121 832,-121 832,-39 832,-39 832,-33 838,-27 844,-27"/>
<text text-anchor="start" x="893" y="-12.8" font-family="Arial" font-weight="bold" font-size="14.00"> </text>
</g>
<!-- 10&#45;&gt;12 -->
<g id="edge12" class="edge">
<title>10&#45;&gt;12</title>
<path fill="none" stroke="#888888" d="M844.1,-195.81C847.92,-187.2 851.83,-178.38 855.7,-169.66"/>
<polygon fill="#888888" stroke="#888888" points="859.02,-170.81 859.87,-160.25 852.62,-167.97 859.02,-170.81"/>
</g>
<!-- 14 -->
<g id="node14" class="node">
<title>14</title>
<text text-anchor="start" x="1043" y="-141.8" font-family="Arial" font-weight="bold" font-size="14.00"> &lt; 3.5</text>
<path fill="#f8766d" fill-opacity="0.682353" stroke="transparent" d="M1013,-27C1013,-27 1108,-27 1108,-27 1114,-27 1120,-33 1120,-39 1120,-39 1120,-121 1120,-121 1120,-127 1114,-133 1108,-133 1108,-133 1013,-133 1013,-133 1007,-133 1001,-127 1001,-121 1001,-121 1001,-39 1001,-39 1001,-33 1007,-27 1013,-27"/>
<text text-anchor="start" x="1002" y="-130.4" font-family="Arial" font-size="2.00"> </text>
<text text-anchor="start" x="1002" y="-124.4" font-family="Arial" font-size="7.00"> &#160;14</text>
<text text-anchor="start" x="1031.5" y="-107.8" font-family="Arial" font-weight="bold" font-size="14.00">Predict 0</text>
<text text-anchor="start" x="1040.5" y="-90.8" font-family="Arial" font-weight="bold" font-size="14.00">n = 19</text>
<polygon fill="none" stroke="#333333" points="1016,-63 1016,-84 1030,-84 1030,-63 1016,-63"/>
<text text-anchor="start" x="1019" y="-69.8" font-family="Arial" font-size="14.00">0</text>
<polygon fill="none" stroke="#333333" points="1030,-63 1030,-84 1052,-84 1052,-63 1030,-63"/>
<text text-anchor="start" x="1033" y="-69.8" font-family="Arial" font-size="14.00">13</text>
<polygon fill="none" stroke="#333333" points="1052,-63 1052,-84 1105,-84 1105,-63 1052,-63"/>
<text text-anchor="start" x="1055" y="-69.8" font-family="Arial" font-size="14.00">68.42%</text>
<polygon fill="none" stroke="#333333" points="1016,-42 1016,-63 1030,-63 1030,-42 1016,-42"/>
<text text-anchor="start" x="1019" y="-48.8" font-family="Arial" font-size="14.00">1</text>
<polygon fill="none" stroke="#333333" points="1030,-42 1030,-63 1052,-63 1052,-42 1030,-42"/>
<text text-anchor="start" x="1041" y="-48.8" font-family="Arial" font-size="14.00">6</text>
<polygon fill="none" stroke="#333333" points="1052,-42 1052,-63 1105,-63 1105,-42 1052,-42"/>
<text text-anchor="start" x="1055" y="-48.8" font-family="Arial" font-size="14.00">31.58%</text>
<text text-anchor="start" x="1059" y="-30.8" font-family="Arial" font-size="9.00"> </text>
<path fill="none" stroke="#333333" d="M1013,-27C1013,-27 1108,-27 1108,-27 1114,-27 1120,-33 1120,-39 1120,-39 1120,-121 1120,-121 1120,-127 1114,-133 1108,-133 1108,-133 1013,-133 1013,-133 1007,-133 1001,-127 1001,-121 1001,-121 1001,-39 1001,-39 1001,-33 1007,-27 1013,-27"/>
<text text-anchor="start" x="1058.5" y="-12.8" font-family="Arial" font-weight="bold" font-size="14.00"> </text>
</g>
<!-- 13&#45;&gt;14 -->
<g id="edge13" class="edge">
<title>13&#45;&gt;14</title>
<path fill="none" stroke="#888888" d="M1060,-195.81C1060,-187.47 1060,-178.95 1060,-170.5"/>
<polygon fill="#888888" stroke="#888888" points="1063.5,-170.25 1060,-160.25 1056.5,-170.25 1063.5,-170.25"/>
</g>
<!-- 15 -->
<g id="node15" class="node">
<title>15</title>
<text text-anchor="start" x="1208" y="-141.8" font-family="Arial" font-weight="bold" font-size="14.00"> ≥ 3.5</text>
<path fill="#00bfc4" fill-opacity="0.815686" stroke="transparent" d="M1174,-27C1174,-27 1276,-27 1276,-27 1282,-27 1288,-33 1288,-39 1288,-39 1288,-121 1288,-121 1288,-127 1282,-133 1276,-133 1276,-133 1174,-133 1174,-133 1168,-133 1162,-127 1162,-121 1162,-121 1162,-39 1162,-39 1162,-33 1168,-27 1174,-27"/>
<text text-anchor="start" x="1163" y="-130.4" font-family="Arial" font-size="2.00"> </text>
<text text-anchor="start" x="1163" y="-124.4" font-family="Arial" font-size="7.00"> &#160;15</text>
<text text-anchor="start" x="1196" y="-107.8" font-family="Arial" font-weight="bold" font-size="14.00">Predict 1</text>
<text text-anchor="start" x="1201.5" y="-90.8" font-family="Arial" font-weight="bold" font-size="14.00">n = 490</text>
<polygon fill="none" stroke="#333333" points="1177,-63 1177,-84 1191,-84 1191,-63 1177,-63"/>
<text text-anchor="start" x="1180" y="-69.8" font-family="Arial" font-size="14.00">0</text>
<polygon fill="none" stroke="#333333" points="1191,-63 1191,-84 1220,-84 1220,-63 1191,-63"/>
<text text-anchor="start" x="1201" y="-69.8" font-family="Arial" font-size="14.00">91</text>
<polygon fill="none" stroke="#333333" points="1220,-63 1220,-84 1273,-84 1273,-63 1220,-63"/>
<text text-anchor="start" x="1223" y="-69.8" font-family="Arial" font-size="14.00">18.57%</text>
<polygon fill="none" stroke="#333333" points="1177,-42 1177,-63 1191,-63 1191,-42 1177,-42"/>
<text text-anchor="start" x="1180" y="-48.8" font-family="Arial" font-size="14.00">1</text>
<polygon fill="none" stroke="#333333" points="1191,-42 1191,-63 1220,-63 1220,-42 1191,-42"/>
<text text-anchor="start" x="1194" y="-48.8" font-family="Arial" font-size="14.00">399</text>
<polygon fill="none" stroke="#333333" points="1220,-42 1220,-63 1273,-63 1273,-42 1220,-42"/>
<text text-anchor="start" x="1223" y="-48.8" font-family="Arial" font-size="14.00">81.43%</text>
<text text-anchor="start" x="1223.5" y="-30.8" font-family="Arial" font-size="9.00"> </text>
<path fill="none" stroke="#333333" d="M1174,-27C1174,-27 1276,-27 1276,-27 1282,-27 1288,-33 1288,-39 1288,-39 1288,-121 1288,-121 1288,-127 1282,-133 1276,-133 1276,-133 1174,-133 1174,-133 1168,-133 1162,-127 1162,-121 1162,-121 1162,-39 1162,-39 1162,-33 1168,-27 1174,-27"/>
<text text-anchor="start" x="1223" y="-12.8" font-family="Arial" font-weight="bold" font-size="14.00"> </text>
</g>
<!-- 13&#45;&gt;15 -->
<g id="edge14" class="edge">
<title>13&#45;&gt;15</title>
<path fill="none" stroke="#888888" d="M1127.35,-195.81C1135.15,-186.65 1143.13,-177.26 1151.01,-167.99"/>
<polygon fill="#888888" stroke="#888888" points="1153.79,-170.13 1157.6,-160.25 1148.45,-165.6 1153.79,-170.13"/>
</g>
</g>
</svg>
